<svg width="100" height="40" viewBox="0 0 100 40" fill="none" xmlns="http://www.w3.org/2000/svg">
<rect width="100" height="40" rx="5" fill="#1F2470"/>
<mask id="path-2-outside-1_2312_333" maskUnits="userSpaceOnUse" x="10" y="12" width="19" height="19" fill="black">
<rect fill="white" x="10" y="12" width="19" height="19"/>
<path d="M27.0879 15.2793C26.9512 15.2142 26.7624 15.1816 26.5215 15.1816C26.2806 15.1816 26.0983 15.2337 25.9746 15.3379C25.8574 15.4355 25.7467 15.5755 25.6426 15.7578C25.5384 15.9401 25.4375 16.1582 25.3398 16.4121L21.3066 27.3594C20.8704 28.5768 20.1445 29.1855 19.1289 29.1855C18.8099 29.1855 18.6146 29.0944 18.543 28.9121L13.7285 16.6562C13.6764 16.526 13.6276 16.3861 13.582 16.2363C13.5365 16.0801 13.4844 15.9303 13.4258 15.7871C13.2826 15.4551 13.084 15.25 12.8301 15.1719C12.6803 15.1198 12.5469 15.0775 12.4297 15.0449C12.319 15.0059 12.2279 14.9635 12.1562 14.918C12.0065 14.8203 11.9316 14.6966 11.9316 14.5469C11.9316 14.3125 11.9837 14.1139 12.0879 13.9512C12.2376 14.0033 12.4948 14.0293 12.8594 14.0293H16.9023C17.3385 14.0293 17.6348 14.0586 17.791 14.1172C18.0905 14.2344 18.2402 14.4557 18.2402 14.7812C18.2402 15.0026 18.1914 15.1686 18.0938 15.2793C17.9505 15.2142 17.6673 15.1816 17.2441 15.1816C16.4759 15.1816 16.0918 15.5007 16.0918 16.1387C16.0918 16.2168 16.1146 16.3307 16.1602 16.4805L16.2773 16.8223C16.3099 16.9069 16.3392 16.9818 16.3652 17.0469L19.8711 26.6953L23.4941 16.334C23.5332 16.1908 23.5527 16.0638 23.5527 15.9531C23.5527 15.8359 23.5267 15.7383 23.4746 15.6602C23.4225 15.5755 23.3542 15.5039 23.2695 15.4453C23.1784 15.3802 23.0156 15.3249 22.7812 15.2793C22.5469 15.2272 22.3516 15.1816 22.1953 15.1426C22.0456 15.1035 21.9186 15.0547 21.8145 14.9961C21.6061 14.8789 21.4954 14.6836 21.4824 14.4102C21.4824 14.2279 21.515 14.0749 21.5801 13.9512C21.7298 14.0033 22.0521 14.0293 22.5469 14.0293H25.9355C26.8079 14.0293 27.2441 14.2799 27.2441 14.7812C27.2441 14.9961 27.1921 15.1621 27.0879 15.2793Z"/>
</mask>
<path d="M27.0879 15.2793L26.658 16.1822L27.3362 16.5051L27.8353 15.9437L27.0879 15.2793ZM25.9746 15.3379L26.6148 16.1061L26.6187 16.1028L25.9746 15.3379ZM25.3398 16.4121L24.4065 16.0531L24.404 16.0597L24.4015 16.0664L25.3398 16.4121ZM21.3066 27.3594L20.3683 27.0137L20.3652 27.0221L21.3066 27.3594ZM18.543 28.9121L17.6122 29.2777L17.6122 29.2778L18.543 28.9121ZM13.7285 16.6562L14.6593 16.2906L14.657 16.2849L13.7285 16.6562ZM13.582 16.2363L12.622 16.5163L12.6254 16.5275L13.582 16.2363ZM13.4258 15.7871L14.3513 15.4085L14.3477 15.3997L14.344 15.391L13.4258 15.7871ZM12.8301 15.1719L12.5016 16.1164L12.5187 16.1223L12.536 16.1277L12.8301 15.1719ZM12.4297 15.0449L12.0969 15.9879L12.1291 15.9993L12.162 16.0084L12.4297 15.0449ZM12.1562 14.918L11.6099 15.7556L11.6194 15.7616L12.1562 14.918ZM12.0879 13.9512L12.4164 13.0067L11.671 12.7474L11.2456 13.4121L12.0879 13.9512ZM17.791 14.1172L18.1554 13.1859L18.1488 13.1834L18.1421 13.1809L17.791 14.1172ZM18.0938 15.2793L17.6799 16.1897L18.3538 16.496L18.8436 15.9409L18.0938 15.2793ZM16.1602 16.4805L15.2035 16.7716L15.2086 16.7883L15.2142 16.8048L16.1602 16.4805ZM16.2773 16.8223L15.3314 17.1466L15.3374 17.164L15.344 17.1812L16.2773 16.8223ZM16.3652 17.0469L17.3051 16.7054L17.2996 16.6903L17.2937 16.6755L16.3652 17.0469ZM19.8711 26.6953L18.9312 27.0368L19.8892 29.6732L20.815 27.0254L19.8711 26.6953ZM23.4941 16.334L24.4381 16.6641L24.4497 16.6309L24.4589 16.5971L23.4941 16.334ZM23.4746 15.6602L22.623 16.1843L22.6325 16.1997L22.6426 16.2149L23.4746 15.6602ZM23.2695 15.4453L22.6883 16.259L22.6943 16.2633L22.7003 16.2675L23.2695 15.4453ZM22.7812 15.2793L22.5643 16.2555L22.5773 16.2584L22.5904 16.2609L22.7812 15.2793ZM22.1953 15.1426L21.9429 16.1102L21.9528 16.1127L22.1953 15.1426ZM21.8145 14.9961L22.3047 14.1245L21.8145 14.9961ZM21.4824 14.4102H20.4824V14.434L20.4836 14.4577L21.4824 14.4102ZM21.5801 13.9512L21.9086 13.0067L21.0959 12.724L20.6952 13.4854L21.5801 13.9512ZM27.5178 14.3764C27.1905 14.2206 26.8328 14.1816 26.5215 14.1816V16.1816C26.5988 16.1816 26.6477 16.187 26.6738 16.1915C26.7008 16.1962 26.6905 16.1977 26.658 16.1822L27.5178 14.3764ZM26.5215 14.1816C26.1565 14.1816 25.7046 14.258 25.3305 14.573L26.6187 16.1028C26.5557 16.1559 26.5002 16.1761 26.4788 16.1822C26.4603 16.1875 26.4702 16.1816 26.5215 16.1816V14.1816ZM25.3344 14.5697C25.0982 14.7665 24.917 15.0121 24.7743 15.2617L26.5108 16.254C26.5765 16.139 26.6166 16.1046 26.6148 16.1061L25.3344 14.5697ZM24.7743 15.2617C24.6389 15.4986 24.5173 15.7649 24.4065 16.0531L26.2732 16.7711C26.3577 16.5515 26.4379 16.3816 26.5108 16.254L24.7743 15.2617ZM24.4015 16.0664L20.3683 27.0137L22.245 27.7051L26.2782 16.7578L24.4015 16.0664ZM20.3652 27.0221C20.186 27.5224 19.9788 27.8066 19.7925 27.9628C19.6231 28.1048 19.42 28.1855 19.1289 28.1855V30.1855C19.8535 30.1855 20.5211 29.9619 21.0776 29.4953C21.6173 29.0427 21.9911 28.4138 22.248 27.6967L20.3652 27.0221ZM19.1289 28.1855C19.0513 28.1855 19.0833 28.1724 19.166 28.211C19.2126 28.2327 19.2745 28.2708 19.3354 28.3332C19.3977 28.3969 19.4441 28.471 19.4737 28.5465L17.6122 29.2778C17.9178 30.0557 18.6892 30.1855 19.1289 30.1855V28.1855ZM19.4737 28.5465L14.6593 16.2906L12.7978 17.0219L17.6122 29.2777L19.4737 28.5465ZM14.657 16.2849C14.6166 16.1838 14.577 16.0708 14.5387 15.9452L12.6254 16.5275C12.6783 16.7013 12.7363 16.8683 12.8 17.0276L14.657 16.2849ZM14.542 15.9563C14.4872 15.7683 14.4238 15.5856 14.3513 15.4085L12.5002 16.1657C12.545 16.2751 12.5857 16.3918 12.622 16.5163L14.542 15.9563ZM14.344 15.391C14.1288 14.8923 13.7494 14.4085 13.1242 14.2161L12.536 16.1277C12.5159 16.1215 12.4965 16.1125 12.4796 16.1019C12.463 16.0916 12.4537 16.0827 12.451 16.0799C12.447 16.0758 12.4716 16.0999 12.5076 16.1832L14.344 15.391ZM13.1586 14.2274C12.9944 14.1703 12.8401 14.121 12.6973 14.0814L12.162 16.0084C12.2537 16.0339 12.3663 16.0693 12.5016 16.1164L13.1586 14.2274ZM12.7625 14.1019C12.7323 14.0913 12.7119 14.0826 12.6994 14.0769C12.6868 14.071 12.6858 14.0696 12.6931 14.0743L11.6194 15.7616C11.7741 15.8601 11.9397 15.9324 12.0969 15.9879L12.7625 14.1019ZM12.7025 14.0804C12.7244 14.0946 12.7868 14.1408 12.8433 14.2342C12.9039 14.3342 12.9316 14.446 12.9316 14.5469H10.9316C10.9316 15.1039 11.2406 15.5147 11.61 15.7556L12.7025 14.0804ZM12.9316 14.5469C12.9316 14.5035 12.9365 14.4816 12.938 14.4759C12.9392 14.4713 12.9378 14.4783 12.9302 14.4902L11.2456 13.4121C11.0184 13.7671 10.9316 14.1624 10.9316 14.5469H12.9316ZM11.7594 14.8957C12.0829 15.0082 12.4904 15.0293 12.8594 15.0293V13.0293C12.6983 13.0293 12.5785 13.0234 12.4938 13.0149C12.4008 13.0054 12.3862 12.9962 12.4164 13.0067L11.7594 14.8957ZM12.8594 15.0293H16.9023V13.0293H12.8594V15.0293ZM16.9023 15.0293C17.1012 15.0293 17.249 15.0361 17.3532 15.0464C17.4711 15.0581 17.4829 15.0697 17.4399 15.0535L18.1421 13.1809C17.794 13.0503 17.3247 13.0293 16.9023 13.0293V15.0293ZM17.4266 15.0484C17.4268 15.0485 17.3597 15.0202 17.2996 14.9314C17.2402 14.8436 17.2402 14.7742 17.2402 14.7812H19.2402C19.2402 14.4628 19.1654 14.12 18.9562 13.8108C18.7464 13.5007 18.4548 13.3031 18.1554 13.1859L17.4266 15.0484ZM17.2402 14.7812C17.2402 14.8216 17.2354 14.8196 17.2442 14.7896C17.254 14.7563 17.2807 14.6893 17.3439 14.6177L18.8436 15.9409C19.1664 15.575 19.2402 15.1281 19.2402 14.7812H17.2402ZM18.5076 14.3689C18.2933 14.2715 18.0637 14.2328 17.8881 14.2126C17.6952 14.1904 17.4775 14.1816 17.2441 14.1816V16.1816C17.4339 16.1816 17.5694 16.1891 17.6597 16.1995C17.7042 16.2046 17.7284 16.2094 17.7369 16.2113C17.748 16.2139 17.7238 16.2096 17.6799 16.1897L18.5076 14.3689ZM17.2441 14.1816C16.7464 14.1816 16.187 14.2812 15.741 14.6516C15.2594 15.0516 15.0918 15.6116 15.0918 16.1387H17.0918C17.0918 16.0775 17.1012 16.0692 17.0919 16.0924C17.087 16.1046 17.0783 16.1218 17.0644 16.1411C17.0504 16.1605 17.0345 16.1771 17.0188 16.1902C16.9866 16.2169 16.9727 16.2147 17.0068 16.2052C17.0433 16.1951 17.118 16.1816 17.2441 16.1816V14.1816ZM15.0918 16.1387C15.0918 16.3712 15.1519 16.6022 15.2035 16.7716L17.1168 16.1893C17.1005 16.1358 17.0927 16.1027 17.0895 16.0866C17.088 16.0791 17.0883 16.0793 17.0891 16.0862C17.0899 16.0925 17.0918 16.1109 17.0918 16.1387H15.0918ZM15.2142 16.8048L15.3314 17.1466L17.2233 16.4979L17.1061 16.1561L15.2142 16.8048ZM15.344 17.1812C15.3777 17.2689 15.4087 17.348 15.4368 17.4183L17.2937 16.6755C17.2697 16.6155 17.2421 16.5449 17.2107 16.4633L15.344 17.1812ZM15.4254 17.3884L18.9312 27.0368L20.811 26.3538L17.3051 16.7054L15.4254 17.3884ZM20.815 27.0254L24.4381 16.6641L22.5502 16.0039L18.9271 26.3652L20.815 27.0254ZM24.4589 16.5971C24.5139 16.3953 24.5527 16.177 24.5527 15.9531H22.5527C22.5527 15.9506 22.5525 15.9862 22.5294 16.0709L24.4589 16.5971ZM24.5527 15.9531C24.5527 15.6876 24.4926 15.3844 24.3067 15.1055L22.6426 16.2149C22.5607 16.0921 22.5527 15.9843 22.5527 15.9531H24.5527ZM24.3263 15.1361C24.1991 14.9293 24.033 14.7576 23.8387 14.6231L22.7003 16.2675C22.6754 16.2502 22.646 16.2217 22.623 16.1843L24.3263 15.1361ZM23.8508 14.6316C23.5717 14.4323 23.2233 14.3465 22.9721 14.2977L22.5904 16.2609C22.6788 16.2781 22.7315 16.293 22.7572 16.3018C22.7692 16.3058 22.7688 16.3064 22.7592 16.3018C22.7503 16.2976 22.7239 16.2845 22.6883 16.259L23.8508 14.6316ZM22.9982 14.3031C22.7687 14.2521 22.5826 14.2086 22.4378 14.1724L21.9528 16.1127C22.1206 16.1547 22.3251 16.2023 22.5643 16.2555L22.9982 14.3031ZM22.4477 14.175C22.3581 14.1516 22.3158 14.1308 22.3047 14.1245L21.3242 15.8677C21.5214 15.9786 21.7331 16.0555 21.9429 16.1102L22.4477 14.175ZM22.3047 14.1245C22.3485 14.1492 22.4049 14.1976 22.4452 14.2687C22.4823 14.3341 22.482 14.3766 22.4813 14.3626L20.4836 14.4577C20.5101 15.0162 20.7677 15.5547 21.3242 15.8677L22.3047 14.1245ZM22.4824 14.4102C22.4824 14.3778 22.4854 14.3647 22.4849 14.3668C22.4844 14.3695 22.4799 14.3886 22.465 14.4169L20.6952 13.4854C20.535 13.7897 20.4824 14.1133 20.4824 14.4102H22.4824ZM21.2516 14.8957C21.4525 14.9656 21.6763 14.9922 21.8535 15.0065C22.0515 15.0225 22.2851 15.0293 22.5469 15.0293V13.0293C22.3139 13.0293 22.1389 13.0231 22.0146 13.013C21.9529 13.008 21.912 13.0027 21.888 12.9988C21.86 12.9941 21.8725 12.9941 21.9086 13.0067L21.2516 14.8957ZM22.5469 15.0293H25.9355V13.0293H22.5469V15.0293ZM25.9355 15.0293C26.1087 15.0293 26.234 15.042 26.3199 15.0584C26.4077 15.0752 26.4315 15.0916 26.4188 15.0843C26.3999 15.0735 26.344 15.0344 26.2974 14.954C26.2507 14.8735 26.2441 14.8048 26.2441 14.7812H28.2441C28.2441 14.171 27.9423 13.6531 27.4152 13.3502C26.9715 13.0953 26.4347 13.0293 25.9355 13.0293V15.0293ZM26.2441 14.7812C26.2441 14.81 26.2404 14.801 26.2509 14.7676C26.2625 14.7305 26.2888 14.6731 26.3405 14.6149L27.8353 15.9437C28.154 15.5851 28.2441 15.1498 28.2441 14.7812H26.2441Z" fill="white" mask="url(#path-2-outside-1_2312_333)"/>
<path d="M29.7754 28.2559C29.2051 28.8262 28.5156 29.1113 27.707 29.1113C27.082 29.1113 26.582 28.9316 26.207 28.5723C25.8281 28.209 25.6387 27.7383 25.6387 27.1602C25.6387 26.4414 25.959 25.9023 26.5996 25.543C27.1777 25.2148 27.9922 25.0508 29.043 25.0508H29.7754C29.7793 24.9023 29.7812 24.7578 29.7812 24.6172V24.1777C29.7812 23.6543 29.7051 23.2852 29.5527 23.0703C29.3809 22.8281 29.0879 22.707 28.6738 22.707C27.7246 22.707 27.2363 23.0469 27.209 23.7266C27.2051 23.832 27.207 23.9199 27.2148 23.9902C27.1367 24.0527 27.0039 24.084 26.8164 24.084C26.6328 24.084 26.498 24.0625 26.4121 24.0195C26.3301 23.9766 26.2578 23.918 26.1953 23.8438C26.0625 23.6914 25.9961 23.498 25.9961 23.2637C25.9961 23.0254 26.0645 22.8184 26.2012 22.6426C26.3418 22.4629 26.5312 22.3164 26.7695 22.2031C27.2344 21.9727 27.7832 21.8574 28.416 21.8574C29.0488 21.8574 29.5234 21.9199 29.8398 22.0449C30.1602 22.166 30.4141 22.3281 30.6016 22.5312C30.9336 22.8906 31.0996 23.373 31.0996 23.9785L31.041 26.791C31.041 27.3027 31.0645 27.627 31.1113 27.7637C31.1621 27.9004 31.2207 27.9922 31.2871 28.0391C31.3574 28.0859 31.4414 28.1094 31.5391 28.1094C31.6406 28.1094 31.7227 28.0938 31.7852 28.0625L31.9492 27.9863C32.0039 27.9668 32.0508 27.9902 32.0898 28.0566C32.1328 28.1191 32.1543 28.1758 32.1543 28.2266C32.1543 28.2734 32.1328 28.3359 32.0898 28.4141C32.0508 28.4922 31.9746 28.5762 31.8613 28.666C31.752 28.752 31.627 28.8281 31.4863 28.8945C30.709 29.2617 30.1797 29.1758 29.8984 28.6367C29.8398 28.5312 29.7988 28.4043 29.7754 28.2559ZM29.7578 27.4883C29.7578 26.9258 29.7617 26.3672 29.7695 25.8125C28.957 25.8438 28.4043 25.8965 28.1113 25.9707C27.8223 26.041 27.6133 26.1094 27.4844 26.1758C27.3555 26.2422 27.2539 26.3203 27.1797 26.4102C27.0586 26.5586 26.998 26.7832 26.998 27.084C26.998 27.3809 27.1035 27.6191 27.3145 27.7988C27.5254 27.9746 27.8281 28.0625 28.2227 28.0625C28.7812 28.0625 29.293 27.8711 29.7578 27.4883ZM37.0879 28.2559C36.5176 28.8262 35.8281 29.1113 35.0195 29.1113C34.3945 29.1113 33.8945 28.9316 33.5195 28.5723C33.1406 28.209 32.9512 27.7383 32.9512 27.1602C32.9512 26.4414 33.2715 25.9023 33.9121 25.543C34.4902 25.2148 35.3047 25.0508 36.3555 25.0508H37.0879C37.0918 24.9023 37.0938 24.7578 37.0938 24.6172V24.1777C37.0938 23.6543 37.0176 23.2852 36.8652 23.0703C36.6934 22.8281 36.4004 22.707 35.9863 22.707C35.0371 22.707 34.5488 23.0469 34.5215 23.7266C34.5176 23.832 34.5195 23.9199 34.5273 23.9902C34.4492 24.0527 34.3164 24.084 34.1289 24.084C33.9453 24.084 33.8105 24.0625 33.7246 24.0195C33.6426 23.9766 33.5703 23.918 33.5078 23.8438C33.375 23.6914 33.3086 23.498 33.3086 23.2637C33.3086 23.0254 33.377 22.8184 33.5137 22.6426C33.6543 22.4629 33.8438 22.3164 34.082 22.2031C34.5469 21.9727 35.0957 21.8574 35.7285 21.8574C36.3613 21.8574 36.8359 21.9199 37.1523 22.0449C37.4727 22.166 37.7266 22.3281 37.9141 22.5312C38.2461 22.8906 38.4121 23.373 38.4121 23.9785L38.3535 26.791C38.3535 27.3027 38.377 27.627 38.4238 27.7637C38.4746 27.9004 38.5332 27.9922 38.5996 28.0391C38.6699 28.0859 38.7539 28.1094 38.8516 28.1094C38.9531 28.1094 39.0352 28.0938 39.0977 28.0625L39.2617 27.9863C39.3164 27.9668 39.3633 27.9902 39.4023 28.0566C39.4453 28.1191 39.4668 28.1758 39.4668 28.2266C39.4668 28.2734 39.4453 28.3359 39.4023 28.4141C39.3633 28.4922 39.2871 28.5762 39.1738 28.666C39.0645 28.752 38.9395 28.8281 38.7988 28.8945C38.0215 29.2617 37.4922 29.1758 37.2109 28.6367C37.1523 28.5312 37.1113 28.4043 37.0879 28.2559ZM37.0703 27.4883C37.0703 26.9258 37.0742 26.3672 37.082 25.8125C36.2695 25.8438 35.7168 25.8965 35.4238 25.9707C35.1348 26.041 34.9258 26.1094 34.7969 26.1758C34.668 26.2422 34.5664 26.3203 34.4922 26.4102C34.3711 26.5586 34.3105 26.7832 34.3105 27.084C34.3105 27.3809 34.416 27.6191 34.627 27.7988C34.8379 27.9746 35.1406 28.0625 35.5352 28.0625C36.0938 28.0625 36.6055 27.8711 37.0703 27.4883ZM39.9766 22.8008L39.8535 22.8242C39.7676 22.8242 39.707 22.7656 39.6719 22.6484C39.6602 22.6172 39.6543 22.5723 39.6543 22.5137C39.6543 22.4551 39.6875 22.3828 39.7539 22.2969C39.8203 22.2109 39.9062 22.1367 40.0117 22.0742C40.2461 21.9297 40.4941 21.8574 40.7559 21.8574C40.9629 21.8574 41.1113 21.8867 41.2012 21.9453C41.377 22.0547 41.5137 22.2773 41.6113 22.6133L43.3984 27.7988C43.7656 26.9824 44.0176 26.4043 44.1543 26.0645L44.5117 25.1562C44.8438 24.2656 45.0098 23.6855 45.0098 23.416C45.0098 23.1426 44.9629 22.9434 44.8691 22.8184C44.7754 22.6934 44.6133 22.6191 44.3828 22.5957C44.3398 22.5488 44.3184 22.4863 44.3184 22.4082C44.3184 22.3262 44.3535 22.252 44.4238 22.1855C44.498 22.1152 44.5938 22.0547 44.7109 22.0039C44.9492 21.9062 45.1934 21.8574 45.4434 21.8574C45.6973 21.8574 45.877 21.8711 45.9824 21.8984C46.0879 21.9219 46.1719 21.9629 46.2344 22.0215C46.3555 22.1309 46.416 22.334 46.416 22.6309C46.416 22.8965 46.207 23.5977 45.7891 24.7344C45.3984 25.75 45.1055 26.4863 44.9102 26.9434C44.1914 28.5449 43.6504 29.666 43.2871 30.3066C42.9238 30.9473 42.5801 31.3906 42.2559 31.6367C41.9316 31.8867 41.5898 32.0117 41.2305 32.0117C40.8711 32.0117 40.5996 31.9336 40.416 31.7773C40.2324 31.625 40.1406 31.4141 40.1406 31.1445C40.1406 30.9414 40.1914 30.7891 40.293 30.6875C40.4844 30.4961 40.6875 30.4219 40.9023 30.4648C40.9375 30.7578 41.1133 30.9043 41.4297 30.9043C41.7148 30.9043 41.9707 30.7188 42.1973 30.3477C42.3027 30.1719 42.4062 29.9668 42.5078 29.7324L42.8477 28.9766L42.9648 28.7363C42.7383 28.7051 42.5469 28.5938 42.3906 28.4023C42.3281 28.3281 42.2773 28.2344 42.2383 28.1211L40.5977 23.8145L40.457 23.4688C40.2773 23.0234 40.1172 22.8008 39.9766 22.8008ZM47.8105 23.7852C47.8105 23.5625 47.793 23.3848 47.7578 23.252C47.7266 23.1152 47.6602 23.0469 47.5586 23.0469C47.4844 23.0469 47.4258 23.0547 47.3828 23.0703L47.2422 23.1289C47.2148 23.1367 47.1816 23.1211 47.1426 23.082C47.0684 23 47.0312 22.9258 47.0312 22.8594C47.0312 22.7891 47.0527 22.7168 47.0957 22.6426C47.1426 22.5645 47.2109 22.4766 47.3008 22.3789C47.3945 22.2812 47.5 22.1953 47.6172 22.1211C47.8828 21.9453 48.123 21.8574 48.3379 21.8574C48.5527 21.8574 48.7051 21.8945 48.7949 21.9688C48.8848 22.043 48.9531 22.1406 49 22.2617C49.0781 22.457 49.1172 22.752 49.1172 23.1465V26.8145C49.1172 27.4746 49.3164 27.8438 49.7148 27.9219C49.8359 27.9453 49.9785 27.957 50.1426 27.957C50.3105 27.957 50.4883 27.9355 50.6758 27.8926C50.8672 27.8496 51.0488 27.793 51.2207 27.7227C51.5527 27.5859 51.8457 27.4121 52.0996 27.2012V23.7852C52.0996 23.4141 52.0332 23.1855 51.9004 23.0996C51.8457 23.0645 51.7734 23.0469 51.6836 23.0469C51.5938 23.0469 51.5215 23.0605 51.4668 23.0879C51.416 23.1152 51.373 23.1348 51.3379 23.1465C51.3066 23.1582 51.2793 23.1582 51.2559 23.1465C51.2324 23.1309 51.207 23.1094 51.1797 23.082C51.1211 23.0156 51.0918 22.9492 51.0918 22.8828C51.0918 22.8164 51.1152 22.7461 51.1621 22.6719C51.2129 22.5938 51.293 22.5059 51.4023 22.4082C51.5117 22.3066 51.6367 22.2148 51.7773 22.1328C52.0938 21.9492 52.4102 21.8574 52.7266 21.8574C53.1094 21.8574 53.3281 22.1289 53.3828 22.6719C53.3984 22.8242 53.4062 22.9824 53.4062 23.1465V26.6152C53.4062 27.2168 53.4297 27.5918 53.4766 27.7402C53.5234 27.8887 53.5801 27.9863 53.6465 28.0332C53.7129 28.0762 53.7949 28.0977 53.8926 28.0977C53.9902 28.0977 54.0703 28.082 54.1328 28.0508L54.3086 27.9746C54.3594 27.9629 54.4043 27.9863 54.4434 28.0449C54.5254 28.166 54.5371 28.2754 54.4785 28.373C54.4199 28.4707 54.3281 28.5645 54.2031 28.6543C54.082 28.7441 53.9453 28.8223 53.793 28.8887C53.1172 29.1855 52.6367 29.1797 52.3516 28.8711C52.2031 28.7109 52.1191 28.457 52.0996 28.1094C51.5254 28.5508 50.9375 28.8555 50.3359 29.0234C50.1172 29.082 49.8867 29.1113 49.6445 29.1113C49.4062 29.1113 49.1719 29.0781 48.9414 29.0117C48.7148 28.9453 48.5176 28.8379 48.3496 28.6895C47.9902 28.373 47.8105 27.8848 47.8105 27.2246V23.7852ZM66.8828 27.1777C66.8828 28.0566 66.7656 28.6641 66.5312 29H60.1387C59.8301 29 59.6172 28.9219 59.5 28.7656C59.4609 28.7109 59.4414 28.6504 59.4414 28.584C59.4414 28.4355 59.4727 28.3223 59.5352 28.2441C59.668 28.2832 59.8418 28.3027 60.0566 28.3027C60.5371 28.3027 60.7773 28.0078 60.7773 27.418V21.4004C60.7773 21.1309 60.6641 20.9492 60.4375 20.8555C60.3711 20.8242 60.2891 20.7949 60.1914 20.7676L59.8984 20.6914C59.7109 20.6445 59.5938 20.5879 59.5469 20.5215C59.5039 20.4512 59.4824 20.3809 59.4824 20.3105C59.4824 20.1621 59.5137 20.0488 59.5762 19.9707C59.666 20.002 59.8594 20.0176 60.1562 20.0176H62.7109C62.9141 20.0176 63.0762 20.0508 63.1973 20.1172C63.3184 20.1797 63.3789 20.2969 63.3789 20.4688C63.3789 20.6016 63.3496 20.7012 63.291 20.7676C63.1426 20.7285 63 20.709 62.8633 20.709C62.7305 20.709 62.625 20.7246 62.5469 20.7559C62.4727 20.7832 62.4062 20.832 62.3477 20.9023C62.2305 21.0508 62.168 21.2949 62.1602 21.6348V27.5586C62.168 27.832 62.248 28.0156 62.4004 28.1094C62.5293 28.1914 62.7656 28.2324 63.1094 28.2324L63.5488 28.2266L64.0527 28.2207C64.9043 28.2207 65.4609 28.0312 65.7227 27.6523C65.8516 27.4648 65.9375 27.2305 65.9805 26.9492C66.0273 26.6641 66.0684 26.334 66.1035 25.959C66.166 25.9199 66.25 25.9004 66.3555 25.9004C66.5547 25.9004 66.6895 25.9238 66.7598 25.9707C66.8418 26.291 66.8828 26.6934 66.8828 27.1777ZM72.1035 28.2559C71.5332 28.8262 70.8438 29.1113 70.0352 29.1113C69.4102 29.1113 68.9102 28.9316 68.5352 28.5723C68.1562 28.209 67.9668 27.7383 67.9668 27.1602C67.9668 26.4414 68.2871 25.9023 68.9277 25.543C69.5059 25.2148 70.3203 25.0508 71.3711 25.0508H72.1035C72.1074 24.9023 72.1094 24.7578 72.1094 24.6172V24.1777C72.1094 23.6543 72.0332 23.2852 71.8809 23.0703C71.709 22.8281 71.416 22.707 71.002 22.707C70.0527 22.707 69.5645 23.0469 69.5371 23.7266C69.5332 23.832 69.5352 23.9199 69.543 23.9902C69.4648 24.0527 69.332 24.084 69.1445 24.084C68.9609 24.084 68.8262 24.0625 68.7402 24.0195C68.6582 23.9766 68.5859 23.918 68.5234 23.8438C68.3906 23.6914 68.3242 23.498 68.3242 23.2637C68.3242 23.0254 68.3926 22.8184 68.5293 22.6426C68.6699 22.4629 68.8594 22.3164 69.0977 22.2031C69.5625 21.9727 70.1113 21.8574 70.7441 21.8574C71.377 21.8574 71.8516 21.9199 72.168 22.0449C72.4883 22.166 72.7422 22.3281 72.9297 22.5312C73.2617 22.8906 73.4277 23.373 73.4277 23.9785L73.3691 26.791C73.3691 27.3027 73.3926 27.627 73.4395 27.7637C73.4902 27.9004 73.5488 27.9922 73.6152 28.0391C73.6855 28.0859 73.7695 28.1094 73.8672 28.1094C73.9688 28.1094 74.0508 28.0938 74.1133 28.0625L74.2773 27.9863C74.332 27.9668 74.3789 27.9902 74.418 28.0566C74.4609 28.1191 74.4824 28.1758 74.4824 28.2266C74.4824 28.2734 74.4609 28.3359 74.418 28.4141C74.3789 28.4922 74.3027 28.5762 74.1895 28.666C74.0801 28.752 73.9551 28.8281 73.8145 28.8945C73.0371 29.2617 72.5078 29.1758 72.2266 28.6367C72.168 28.5312 72.127 28.4043 72.1035 28.2559ZM72.0859 27.4883C72.0859 26.9258 72.0898 26.3672 72.0977 25.8125C71.2852 25.8438 70.7324 25.8965 70.4395 25.9707C70.1504 26.041 69.9414 26.1094 69.8125 26.1758C69.6836 26.2422 69.582 26.3203 69.5078 26.4102C69.3867 26.5586 69.3262 26.7832 69.3262 27.084C69.3262 27.3809 69.4316 27.6191 69.6426 27.7988C69.8535 27.9746 70.1562 28.0625 70.5508 28.0625C71.1094 28.0625 71.6211 27.8711 72.0859 27.4883ZM77.1953 22.6777C77.7812 22.1309 78.4355 21.8574 79.1582 21.8574C79.9551 21.8574 80.6035 22.1328 81.1035 22.6836C81.6504 23.2773 81.9238 24.1055 81.9238 25.168C81.9238 26.3633 81.5488 27.332 80.7988 28.0742C80.0918 28.7656 79.2559 29.1113 78.291 29.1113C77.6621 29.1113 77.0352 28.9688 76.4102 28.6836C76.207 28.5938 76.0332 28.4902 75.8887 28.373V20.3574C75.8887 20.0879 75.8613 19.9141 75.8066 19.8359C75.7246 19.7109 75.5801 19.6484 75.373 19.6484C75.2793 19.6484 75.1914 19.6582 75.1094 19.6777C75.0273 19.6934 74.9707 19.6934 74.9395 19.6777C74.9082 19.6582 74.8809 19.6328 74.8574 19.6016C74.7754 19.4766 74.873 19.3125 75.1504 19.1094C75.5801 18.793 76.0039 18.6348 76.4219 18.6348C76.8672 18.6348 77.1172 18.875 77.1719 19.3555C77.1875 19.5 77.1953 19.6523 77.1953 19.8125V22.6777ZM77.1953 23.6094V27.7168C77.5625 28.0215 78.002 28.1738 78.5137 28.1738C79.1191 28.1738 79.6113 27.9492 79.9902 27.5C80.3926 27.0234 80.5938 26.3691 80.5938 25.5371C80.5938 24.6621 80.416 24.0039 80.0605 23.5625C79.7441 23.1602 79.3008 22.959 78.7305 22.959C78.1641 22.959 77.6523 23.1758 77.1953 23.6094ZM87.0742 23.9375C87.0742 23.3359 86.8242 22.9375 86.3242 22.7422C86.1641 22.6797 85.9902 22.6484 85.8027 22.6484C85.6191 22.6484 85.4473 22.6641 85.2871 22.6953C85.1309 22.7266 84.9922 22.7754 84.8711 22.8418C84.5977 22.9902 84.4609 23.2031 84.4609 23.4805C84.4609 23.7461 84.5742 23.9766 84.8008 24.1719C85.0508 24.3789 85.5156 24.6348 86.1953 24.9395C86.875 25.2402 87.3984 25.5703 87.7656 25.9297C88.1367 26.2852 88.3223 26.6953 88.3223 27.1602C88.3223 27.6836 88.1074 28.125 87.6777 28.4844C87.1738 28.9023 86.4766 29.1113 85.5859 29.1113C84.4961 29.1113 83.7422 28.8789 83.3242 28.4141C83.1797 28.25 83.1074 28.041 83.1074 27.7871C83.1074 27.1738 83.2578 26.8164 83.5586 26.7148C83.6328 26.6914 83.7031 26.6797 83.7695 26.6797C83.9531 26.6797 84.0527 26.7363 84.0684 26.8496C84.1543 27.8262 84.7012 28.3145 85.709 28.3145C86.3145 28.3145 86.7188 28.1445 86.9219 27.8047C86.9883 27.6953 87.0215 27.5625 87.0215 27.4062C87.0215 27.25 86.9707 27.1074 86.8691 26.9785C86.7715 26.8496 86.6348 26.7305 86.459 26.6211C86.2832 26.5078 86.0742 26.3984 85.832 26.293L85.0527 25.9414C83.8574 25.3945 83.2598 24.668 83.2598 23.7617C83.2598 23.1758 83.5195 22.707 84.0391 22.3555C84.5312 22.0234 85.166 21.8574 85.9434 21.8574C86.998 21.8574 87.6543 22.0859 87.9121 22.543C87.9785 22.6602 88.0117 22.7891 88.0117 22.9297C88.0117 23.0703 88.0039 23.1973 87.9883 23.3105C87.9727 23.4199 87.9531 23.5195 87.9297 23.6094C87.8906 23.7812 87.8457 23.9023 87.7949 23.9727C87.6934 24.0469 87.5469 24.084 87.3555 24.084C87.168 24.084 87.0742 24.0352 87.0742 23.9375Z" fill="white"/>
</svg>
