<svg width="40" height="40" viewBox="0 0 40 40" fill="none" xmlns="http://www.w3.org/2000/svg">
<rect width="40" height="40" rx="20" fill="white"/>
<mask id="path-2-outside-1_2312_351" maskUnits="userSpaceOnUse" x="10" y="12" width="19" height="19" fill="black">
<rect fill="white" x="10" y="12" width="19" height="19"/>
<path d="M27.0879 15.2793C26.9512 15.2142 26.7624 15.1816 26.5215 15.1816C26.2806 15.1816 26.0983 15.2337 25.9746 15.3379C25.8574 15.4355 25.7467 15.5755 25.6426 15.7578C25.5384 15.9401 25.4375 16.1582 25.3398 16.4121L21.3066 27.3594C20.8704 28.5768 20.1445 29.1855 19.1289 29.1855C18.8099 29.1855 18.6146 29.0944 18.543 28.9121L13.7285 16.6562C13.6764 16.526 13.6276 16.3861 13.582 16.2363C13.5365 16.0801 13.4844 15.9303 13.4258 15.7871C13.2826 15.4551 13.084 15.25 12.8301 15.1719C12.6803 15.1198 12.5469 15.0775 12.4297 15.0449C12.319 15.0059 12.2279 14.9635 12.1562 14.918C12.0065 14.8203 11.9316 14.6966 11.9316 14.5469C11.9316 14.3125 11.9837 14.1139 12.0879 13.9512C12.2376 14.0033 12.4948 14.0293 12.8594 14.0293H16.9023C17.3385 14.0293 17.6348 14.0586 17.791 14.1172C18.0905 14.2344 18.2402 14.4557 18.2402 14.7812C18.2402 15.0026 18.1914 15.1686 18.0938 15.2793C17.9505 15.2142 17.6673 15.1816 17.2441 15.1816C16.4759 15.1816 16.0918 15.5007 16.0918 16.1387C16.0918 16.2168 16.1146 16.3307 16.1602 16.4805L16.2773 16.8223C16.3099 16.9069 16.3392 16.9818 16.3652 17.0469L19.8711 26.6953L23.4941 16.334C23.5332 16.1908 23.5527 16.0638 23.5527 15.9531C23.5527 15.8359 23.5267 15.7383 23.4746 15.6602C23.4225 15.5755 23.3542 15.5039 23.2695 15.4453C23.1784 15.3802 23.0156 15.3249 22.7812 15.2793C22.5469 15.2272 22.3516 15.1816 22.1953 15.1426C22.0456 15.1035 21.9186 15.0547 21.8145 14.9961C21.6061 14.8789 21.4954 14.6836 21.4824 14.4102C21.4824 14.2279 21.515 14.0749 21.5801 13.9512C21.7298 14.0033 22.0521 14.0293 22.5469 14.0293H25.9355C26.8079 14.0293 27.2441 14.2799 27.2441 14.7812C27.2441 14.9961 27.1921 15.1621 27.0879 15.2793Z"/>
</mask>
<path d="M27.0879 15.2793L26.658 16.1822L27.3362 16.5051L27.8353 15.9437L27.0879 15.2793ZM25.9746 15.3379L26.6148 16.1061L26.6187 16.1028L25.9746 15.3379ZM25.3398 16.4121L24.4065 16.0531L24.404 16.0597L24.4015 16.0664L25.3398 16.4121ZM21.3066 27.3594L20.3683 27.0137L20.3652 27.0221L21.3066 27.3594ZM18.543 28.9121L17.6122 29.2777L17.6122 29.2778L18.543 28.9121ZM13.7285 16.6562L14.6593 16.2906L14.657 16.2849L13.7285 16.6562ZM13.582 16.2363L12.622 16.5163L12.6254 16.5275L13.582 16.2363ZM13.4258 15.7871L14.3513 15.4085L14.3477 15.3997L14.344 15.391L13.4258 15.7871ZM12.8301 15.1719L12.5016 16.1164L12.5187 16.1223L12.536 16.1277L12.8301 15.1719ZM12.4297 15.0449L12.0969 15.9879L12.1291 15.9993L12.162 16.0084L12.4297 15.0449ZM12.1562 14.918L11.6099 15.7556L11.6194 15.7616L12.1562 14.918ZM12.0879 13.9512L12.4164 13.0067L11.671 12.7474L11.2456 13.4121L12.0879 13.9512ZM17.791 14.1172L18.1554 13.1859L18.1488 13.1834L18.1421 13.1809L17.791 14.1172ZM18.0938 15.2793L17.6799 16.1897L18.3538 16.496L18.8436 15.9409L18.0938 15.2793ZM16.1602 16.4805L15.2035 16.7716L15.2086 16.7883L15.2142 16.8048L16.1602 16.4805ZM16.2773 16.8223L15.3314 17.1466L15.3374 17.164L15.344 17.1812L16.2773 16.8223ZM16.3652 17.0469L17.3051 16.7054L17.2996 16.6903L17.2937 16.6755L16.3652 17.0469ZM19.8711 26.6953L18.9312 27.0368L19.8892 29.6732L20.815 27.0254L19.8711 26.6953ZM23.4941 16.334L24.4381 16.6641L24.4497 16.6309L24.4589 16.5971L23.4941 16.334ZM23.4746 15.6602L22.623 16.1843L22.6325 16.1997L22.6426 16.2149L23.4746 15.6602ZM23.2695 15.4453L22.6883 16.259L22.6943 16.2633L22.7003 16.2675L23.2695 15.4453ZM22.7812 15.2793L22.5643 16.2555L22.5773 16.2584L22.5904 16.2609L22.7812 15.2793ZM22.1953 15.1426L21.9429 16.1102L21.9528 16.1127L22.1953 15.1426ZM21.8145 14.9961L22.3047 14.1245L21.8145 14.9961ZM21.4824 14.4102H20.4824V14.434L20.4836 14.4577L21.4824 14.4102ZM21.5801 13.9512L21.9086 13.0067L21.0959 12.724L20.6952 13.4854L21.5801 13.9512ZM27.5178 14.3764C27.1905 14.2206 26.8328 14.1816 26.5215 14.1816V16.1816C26.5988 16.1816 26.6477 16.187 26.6738 16.1915C26.7008 16.1962 26.6905 16.1977 26.658 16.1822L27.5178 14.3764ZM26.5215 14.1816C26.1565 14.1816 25.7046 14.258 25.3305 14.573L26.6187 16.1028C26.5557 16.1559 26.5002 16.1761 26.4788 16.1822C26.4603 16.1875 26.4702 16.1816 26.5215 16.1816V14.1816ZM25.3344 14.5697C25.0982 14.7665 24.917 15.0121 24.7743 15.2617L26.5108 16.254C26.5765 16.139 26.6166 16.1046 26.6148 16.1061L25.3344 14.5697ZM24.7743 15.2617C24.6389 15.4986 24.5173 15.7649 24.4065 16.0531L26.2732 16.7711C26.3577 16.5515 26.4379 16.3816 26.5108 16.254L24.7743 15.2617ZM24.4015 16.0664L20.3683 27.0137L22.245 27.7051L26.2782 16.7578L24.4015 16.0664ZM20.3652 27.0221C20.186 27.5224 19.9788 27.8066 19.7925 27.9628C19.6231 28.1048 19.42 28.1855 19.1289 28.1855V30.1855C19.8535 30.1855 20.5211 29.9619 21.0776 29.4953C21.6173 29.0427 21.9911 28.4138 22.248 27.6967L20.3652 27.0221ZM19.1289 28.1855C19.0513 28.1855 19.0833 28.1724 19.166 28.211C19.2126 28.2327 19.2745 28.2708 19.3354 28.3332C19.3977 28.3969 19.4441 28.471 19.4737 28.5465L17.6122 29.2778C17.9178 30.0557 18.6892 30.1855 19.1289 30.1855V28.1855ZM19.4737 28.5465L14.6593 16.2906L12.7978 17.0219L17.6122 29.2777L19.4737 28.5465ZM14.657 16.2849C14.6166 16.1838 14.577 16.0708 14.5387 15.9452L12.6254 16.5275C12.6783 16.7013 12.7363 16.8683 12.8 17.0276L14.657 16.2849ZM14.542 15.9563C14.4872 15.7683 14.4238 15.5856 14.3513 15.4085L12.5002 16.1657C12.545 16.2751 12.5857 16.3918 12.622 16.5163L14.542 15.9563ZM14.344 15.391C14.1288 14.8923 13.7494 14.4085 13.1242 14.2161L12.536 16.1277C12.5159 16.1215 12.4965 16.1125 12.4796 16.1019C12.463 16.0916 12.4537 16.0827 12.451 16.0799C12.447 16.0758 12.4716 16.0999 12.5076 16.1832L14.344 15.391ZM13.1586 14.2274C12.9944 14.1703 12.8401 14.121 12.6973 14.0814L12.162 16.0084C12.2537 16.0339 12.3663 16.0693 12.5016 16.1164L13.1586 14.2274ZM12.7625 14.1019C12.7323 14.0913 12.7119 14.0826 12.6994 14.0769C12.6868 14.071 12.6858 14.0696 12.6931 14.0743L11.6194 15.7616C11.7741 15.8601 11.9397 15.9324 12.0969 15.9879L12.7625 14.1019ZM12.7025 14.0804C12.7244 14.0946 12.7868 14.1408 12.8433 14.2342C12.9039 14.3342 12.9316 14.446 12.9316 14.5469H10.9316C10.9316 15.1039 11.2406 15.5147 11.61 15.7556L12.7025 14.0804ZM12.9316 14.5469C12.9316 14.5035 12.9365 14.4816 12.938 14.4759C12.9392 14.4713 12.9378 14.4783 12.9302 14.4902L11.2456 13.4121C11.0184 13.7671 10.9316 14.1624 10.9316 14.5469H12.9316ZM11.7594 14.8957C12.0829 15.0082 12.4904 15.0293 12.8594 15.0293V13.0293C12.6983 13.0293 12.5785 13.0234 12.4938 13.0149C12.4008 13.0054 12.3862 12.9962 12.4164 13.0067L11.7594 14.8957ZM12.8594 15.0293H16.9023V13.0293H12.8594V15.0293ZM16.9023 15.0293C17.1012 15.0293 17.249 15.0361 17.3532 15.0464C17.4711 15.0581 17.4829 15.0697 17.4399 15.0535L18.1421 13.1809C17.794 13.0503 17.3247 13.0293 16.9023 13.0293V15.0293ZM17.4266 15.0484C17.4268 15.0485 17.3597 15.0202 17.2996 14.9314C17.2402 14.8436 17.2402 14.7742 17.2402 14.7812H19.2402C19.2402 14.4628 19.1654 14.12 18.9562 13.8108C18.7464 13.5007 18.4548 13.3031 18.1554 13.1859L17.4266 15.0484ZM17.2402 14.7812C17.2402 14.8216 17.2354 14.8196 17.2442 14.7896C17.254 14.7563 17.2807 14.6893 17.3439 14.6177L18.8436 15.9409C19.1664 15.575 19.2402 15.1281 19.2402 14.7812H17.2402ZM18.5076 14.3689C18.2933 14.2715 18.0637 14.2328 17.8881 14.2126C17.6952 14.1904 17.4775 14.1816 17.2441 14.1816V16.1816C17.4339 16.1816 17.5694 16.1891 17.6597 16.1995C17.7042 16.2046 17.7284 16.2094 17.7369 16.2113C17.748 16.2139 17.7238 16.2096 17.6799 16.1897L18.5076 14.3689ZM17.2441 14.1816C16.7464 14.1816 16.187 14.2812 15.741 14.6516C15.2594 15.0516 15.0918 15.6116 15.0918 16.1387H17.0918C17.0918 16.0775 17.1012 16.0692 17.0919 16.0924C17.087 16.1046 17.0783 16.1218 17.0644 16.1411C17.0504 16.1605 17.0345 16.1771 17.0188 16.1902C16.9866 16.2169 16.9727 16.2147 17.0068 16.2052C17.0433 16.1951 17.118 16.1816 17.2441 16.1816V14.1816ZM15.0918 16.1387C15.0918 16.3712 15.1519 16.6022 15.2035 16.7716L17.1168 16.1893C17.1005 16.1358 17.0927 16.1027 17.0895 16.0866C17.088 16.0791 17.0883 16.0793 17.0891 16.0862C17.0899 16.0925 17.0918 16.1109 17.0918 16.1387H15.0918ZM15.2142 16.8048L15.3314 17.1466L17.2233 16.4979L17.1061 16.1561L15.2142 16.8048ZM15.344 17.1812C15.3777 17.2689 15.4087 17.348 15.4368 17.4183L17.2937 16.6755C17.2697 16.6155 17.2421 16.5449 17.2107 16.4633L15.344 17.1812ZM15.4254 17.3884L18.9312 27.0368L20.811 26.3538L17.3051 16.7054L15.4254 17.3884ZM20.815 27.0254L24.4381 16.6641L22.5502 16.0039L18.9271 26.3652L20.815 27.0254ZM24.4589 16.5971C24.5139 16.3953 24.5527 16.177 24.5527 15.9531H22.5527C22.5527 15.9506 22.5525 15.9862 22.5294 16.0709L24.4589 16.5971ZM24.5527 15.9531C24.5527 15.6876 24.4926 15.3844 24.3067 15.1055L22.6426 16.2149C22.5607 16.0921 22.5527 15.9843 22.5527 15.9531H24.5527ZM24.3263 15.1361C24.1991 14.9293 24.033 14.7576 23.8387 14.6231L22.7003 16.2675C22.6754 16.2502 22.646 16.2217 22.623 16.1843L24.3263 15.1361ZM23.8508 14.6316C23.5717 14.4323 23.2233 14.3465 22.9721 14.2977L22.5904 16.2609C22.6788 16.2781 22.7315 16.293 22.7572 16.3018C22.7692 16.3058 22.7688 16.3064 22.7592 16.3018C22.7503 16.2976 22.7239 16.2845 22.6883 16.259L23.8508 14.6316ZM22.9982 14.3031C22.7687 14.2521 22.5826 14.2086 22.4378 14.1724L21.9528 16.1127C22.1206 16.1547 22.3251 16.2023 22.5643 16.2555L22.9982 14.3031ZM22.4477 14.175C22.3581 14.1516 22.3158 14.1308 22.3047 14.1245L21.3242 15.8677C21.5214 15.9786 21.7331 16.0555 21.9429 16.1102L22.4477 14.175ZM22.3047 14.1245C22.3485 14.1492 22.4049 14.1976 22.4452 14.2687C22.4823 14.3341 22.482 14.3766 22.4813 14.3626L20.4836 14.4577C20.5101 15.0162 20.7677 15.5547 21.3242 15.8677L22.3047 14.1245ZM22.4824 14.4102C22.4824 14.3778 22.4854 14.3647 22.4849 14.3668C22.4844 14.3695 22.4799 14.3886 22.465 14.4169L20.6952 13.4854C20.535 13.7897 20.4824 14.1133 20.4824 14.4102H22.4824ZM21.2516 14.8957C21.4525 14.9656 21.6763 14.9922 21.8535 15.0065C22.0515 15.0225 22.2851 15.0293 22.5469 15.0293V13.0293C22.3139 13.0293 22.1389 13.0231 22.0146 13.013C21.9529 13.008 21.912 13.0027 21.888 12.9988C21.86 12.9941 21.8725 12.9941 21.9086 13.0067L21.2516 14.8957ZM22.5469 15.0293H25.9355V13.0293H22.5469V15.0293ZM25.9355 15.0293C26.1087 15.0293 26.234 15.042 26.3199 15.0584C26.4077 15.0752 26.4315 15.0916 26.4188 15.0843C26.3999 15.0735 26.344 15.0344 26.2974 14.954C26.2507 14.8735 26.2441 14.8048 26.2441 14.7812H28.2441C28.2441 14.171 27.9423 13.6531 27.4152 13.3502C26.9715 13.0953 26.4347 13.0293 25.9355 13.0293V15.0293ZM26.2441 14.7812C26.2441 14.81 26.2404 14.801 26.2509 14.7676C26.2625 14.7305 26.2888 14.6731 26.3405 14.6149L27.8353 15.9437C28.154 15.5851 28.2441 15.1498 28.2441 14.7812H26.2441Z" fill="#1F2470" mask="url(#path-2-outside-1_2312_351)"/>
</svg>
