<svg width="17" height="22" viewBox="0 0 17 22" fill="none" xmlns="http://www.w3.org/2000/svg">
<mask id="path-1-outside-1_2312_368" maskUnits="userSpaceOnUse" x="-1" y="3" width="19" height="19" fill="black">
<rect fill="white" x="-1" y="3" width="19" height="19"/>
<path d="M16.0879 6.2793C15.9512 6.21419 15.7624 6.18164 15.5215 6.18164C15.2806 6.18164 15.0983 6.23372 14.9746 6.33789C14.8574 6.43555 14.7467 6.57552 14.6426 6.75781C14.5384 6.9401 14.4375 7.1582 14.3398 7.41211L10.3066 18.3594C9.87044 19.5768 9.14453 20.1855 8.12891 20.1855C7.8099 20.1855 7.61458 20.0944 7.54297 19.9121L2.72852 7.65625C2.67643 7.52604 2.6276 7.38607 2.58203 7.23633C2.53646 7.08008 2.48438 6.93034 2.42578 6.78711C2.28255 6.45508 2.08398 6.25 1.83008 6.17188C1.68034 6.11979 1.54688 6.07747 1.42969 6.04492C1.31901 6.00586 1.22786 5.96354 1.15625 5.91797C1.00651 5.82031 0.931641 5.69661 0.931641 5.54688C0.931641 5.3125 0.983724 5.11393 1.08789 4.95117C1.23763 5.00326 1.49479 5.0293 1.85938 5.0293H5.90234C6.33854 5.0293 6.63477 5.05859 6.79102 5.11719C7.09049 5.23438 7.24023 5.45573 7.24023 5.78125C7.24023 6.0026 7.19141 6.16862 7.09375 6.2793C6.95052 6.21419 6.66732 6.18164 6.24414 6.18164C5.47591 6.18164 5.0918 6.50065 5.0918 7.13867C5.0918 7.2168 5.11458 7.33073 5.16016 7.48047L5.27734 7.82227C5.3099 7.9069 5.33919 7.98177 5.36523 8.04688L8.87109 17.6953L12.4941 7.33398C12.5332 7.19076 12.5527 7.0638 12.5527 6.95312C12.5527 6.83594 12.5267 6.73828 12.4746 6.66016C12.4225 6.57552 12.3542 6.50391 12.2695 6.44531C12.1784 6.38021 12.0156 6.32487 11.7812 6.2793C11.5469 6.22721 11.3516 6.18164 11.1953 6.14258C11.0456 6.10352 10.9186 6.05469 10.8145 5.99609C10.6061 5.87891 10.4954 5.68359 10.4824 5.41016C10.4824 5.22786 10.515 5.07487 10.5801 4.95117C10.7298 5.00326 11.0521 5.0293 11.5469 5.0293H14.9355C15.8079 5.0293 16.2441 5.27995 16.2441 5.78125C16.2441 5.99609 16.1921 6.16211 16.0879 6.2793Z"/>
</mask>
<path d="M16.0879 6.2793L15.658 7.18216L16.3362 7.50514L16.8353 6.94366L16.0879 6.2793ZM14.9746 6.33789L15.6148 7.10612L15.6187 7.1028L14.9746 6.33789ZM14.3398 7.41211L13.4065 7.05313L13.404 7.05975L13.4015 7.0664L14.3398 7.41211ZM10.3066 18.3594L9.36826 18.0137L9.36524 18.0221L10.3066 18.3594ZM7.54297 19.9121L6.61221 20.2777L6.61222 20.2778L7.54297 19.9121ZM2.72852 7.65625L3.65929 7.29061L3.65699 7.28486L2.72852 7.65625ZM2.58203 7.23633L1.62197 7.51635L1.62536 7.52749L2.58203 7.23633ZM2.42578 6.78711L3.35133 6.40848L3.34774 6.39971L3.34399 6.39102L2.42578 6.78711ZM1.83008 6.17188L1.50156 7.11637L1.51867 7.12232L1.53599 7.12765L1.83008 6.17188ZM1.42969 6.04492L1.09687 6.98791L1.1291 6.99929L1.16204 7.00844L1.42969 6.04492ZM1.15625 5.91797L0.609948 6.75563L0.619375 6.76163L1.15625 5.91797ZM1.08789 4.95117L1.41641 4.00668L0.671031 3.74741L0.245619 4.41212L1.08789 4.95117ZM6.79102 5.11719L7.15541 4.18594L7.1488 4.18335L7.14214 4.18086L6.79102 5.11719ZM7.09375 6.2793L6.67995 7.18966L7.35383 7.49597L7.84359 6.94092L7.09375 6.2793ZM5.16016 7.48047L4.20348 7.77163L4.20856 7.78831L4.21421 7.80479L5.16016 7.48047ZM5.27734 7.82227L4.3314 8.14659L4.33738 8.16403L4.344 8.18124L5.27734 7.82227ZM5.36523 8.04688L6.30511 7.70536L6.29965 7.69033L6.29371 7.67548L5.36523 8.04688ZM8.87109 17.6953L7.93122 18.0368L8.88918 20.6732L9.81505 18.0254L8.87109 17.6953ZM12.4941 7.33398L13.4381 7.66406L13.4497 7.63094L13.4589 7.5971L12.4941 7.33398ZM12.4746 6.66016L11.623 7.18425L11.6325 7.19973L11.6426 7.21486L12.4746 6.66016ZM12.2695 6.44531L11.6883 7.25905L11.6943 7.26332L11.7003 7.2675L12.2695 6.44531ZM11.7812 6.2793L11.5643 7.25548L11.5773 7.25837L11.5904 7.26091L11.7812 6.2793ZM11.1953 6.14258L10.9429 7.11025L10.9528 7.11272L11.1953 6.14258ZM10.8145 5.99609L11.3047 5.12452L10.8145 5.99609ZM10.4824 5.41016H9.48242V5.43395L9.48355 5.45772L10.4824 5.41016ZM10.5801 4.95117L10.9086 4.00668L10.0959 3.724L9.69516 4.48543L10.5801 4.95117ZM16.5178 5.37644C16.1905 5.22059 15.8328 5.18164 15.5215 5.18164V7.18164C15.5988 7.18164 15.6477 7.18701 15.6738 7.19151C15.7008 7.19617 15.6905 7.19767 15.658 7.18216L16.5178 5.37644ZM15.5215 5.18164C15.1565 5.18164 14.7046 5.25796 14.3305 5.57298L15.6187 7.1028C15.5557 7.15589 15.5002 7.17613 15.4788 7.18223C15.4603 7.18752 15.4702 7.18164 15.5215 7.18164V5.18164ZM14.3344 5.56967C14.0982 5.7665 13.917 6.01206 13.7743 6.26167L15.5108 7.25395C15.5765 7.13898 15.6166 7.1046 15.6148 7.10611L14.3344 5.56967ZM13.7743 6.26167C13.6389 6.49862 13.5173 6.76495 13.4065 7.05313L15.2732 7.77109C15.3577 7.55146 15.4379 7.38159 15.5108 7.25395L13.7743 6.26167ZM13.4015 7.0664L9.3683 18.0137L11.245 18.7051L15.2782 7.75781L13.4015 7.0664ZM9.36524 18.0221C9.186 18.5224 8.97878 18.8066 8.79251 18.9628C8.62313 19.1048 8.41998 19.1855 8.12891 19.1855V21.1855C8.85345 21.1855 9.52107 20.9619 10.0776 20.4953C10.6173 20.0427 10.9911 19.4138 11.248 18.6967L9.36524 18.0221ZM8.12891 19.1855C8.05126 19.1855 8.08333 19.1724 8.16605 19.211C8.21262 19.2327 8.27449 19.2708 8.33545 19.3332C8.39767 19.3969 8.44408 19.471 8.47372 19.5465L6.61222 20.2778C6.91782 21.0557 7.68921 21.1855 8.12891 21.1855V19.1855ZM8.47373 19.5465L3.65928 7.29062L1.79776 8.02188L6.61221 20.2777L8.47373 19.5465ZM3.65699 7.28486C3.61657 7.1838 3.57695 7.07084 3.53871 6.94517L1.62536 7.52749C1.67826 7.7013 1.7363 7.86829 1.80004 8.02764L3.65699 7.28486ZM3.54203 6.95633C3.4872 6.76834 3.42378 6.58557 3.35133 6.40848L1.50023 7.16574C1.54497 7.27511 1.58572 7.39182 1.62203 7.51633L3.54203 6.95633ZM3.34399 6.39102C3.12885 5.89227 2.74937 5.40847 2.12416 5.2161L1.53599 7.12765C1.51589 7.12147 1.49646 7.11249 1.47958 7.10193C1.46302 7.09156 1.45373 7.0827 1.45102 7.07989C1.44702 7.07576 1.47164 7.09991 1.50757 7.1832L3.34399 6.39102ZM2.1586 5.22738C1.99442 5.17027 1.84006 5.12105 1.69733 5.0814L1.16204 7.00844C1.25369 7.0339 1.36626 7.06931 1.50156 7.11637L2.1586 5.22738ZM1.76251 5.10193C1.73232 5.09128 1.71186 5.08265 1.69943 5.07688C1.68677 5.071 1.68577 5.06963 1.69313 5.07431L0.619375 6.76163C0.774115 6.8601 0.939695 6.93244 1.09687 6.98791L1.76251 5.10193ZM1.70252 5.08036C1.72436 5.0946 1.7868 5.14082 1.84329 5.23415C1.90385 5.33421 1.93164 5.44601 1.93164 5.54688H-0.0683594C-0.0683594 6.10385 0.240599 6.51468 0.609982 6.75558L1.70252 5.08036ZM1.93164 5.54688C1.93164 5.50346 1.93648 5.48161 1.93798 5.47588C1.93917 5.47134 1.93781 5.47827 1.93016 5.49023L0.245619 4.41212C0.0184021 4.76714 -0.0683594 5.1624 -0.0683594 5.54688H1.93164ZM0.75937 5.89567C1.08286 6.00819 1.4904 6.0293 1.85938 6.0293V4.0293C1.69827 4.0293 1.57847 4.02343 1.49382 4.01485C1.40079 4.00543 1.38618 3.99616 1.41641 4.00668L0.75937 5.89567ZM1.85938 6.0293H5.90234V4.0293H1.85938V6.0293ZM5.90234 6.0293C6.10118 6.0293 6.24904 6.03611 6.35324 6.04641C6.47111 6.05807 6.48292 6.06965 6.43989 6.05352L7.14214 4.18086C6.79403 4.05032 6.32469 4.0293 5.90234 4.0293V6.0293ZM6.42662 6.04843C6.42676 6.04849 6.35968 6.02015 6.29965 5.9314C6.24023 5.84357 6.24023 5.77415 6.24023 5.78125H8.24023C8.24023 5.46282 8.16537 5.11997 7.95621 4.81078C7.74644 4.50068 7.45475 4.30308 7.15541 4.18594L6.42662 6.04843ZM6.24023 5.78125C6.24023 5.82163 6.23542 5.81963 6.24425 5.78961C6.25404 5.75633 6.28071 5.68931 6.34391 5.61768L7.84359 6.94092C8.16643 6.57503 8.24023 6.1281 8.24023 5.78125H6.24023ZM7.50755 5.36893C7.29328 5.27153 7.06366 5.23277 6.88812 5.2126C6.69523 5.19043 6.47751 5.18164 6.24414 5.18164V7.18164C6.43394 7.18164 6.56942 7.18913 6.65974 7.19951C6.70419 7.20462 6.72839 7.2094 6.73685 7.21134C6.74795 7.21388 6.72383 7.20961 6.67995 7.18966L7.50755 5.36893ZM6.24414 5.18164C5.74642 5.18164 5.18704 5.28115 4.74098 5.65161C4.25935 6.05161 4.0918 6.61161 4.0918 7.13867H6.0918C6.0918 7.07747 6.10119 7.06919 6.09186 7.09245C6.087 7.10456 6.07835 7.12184 6.06444 7.14109C6.05043 7.16047 6.03452 7.17712 6.01878 7.19019C5.98662 7.2169 5.97267 7.21465 6.00679 7.20521C6.04334 7.19509 6.11802 7.18164 6.24414 7.18164V5.18164ZM4.0918 7.13867C4.0918 7.37122 4.15193 7.60223 4.20348 7.77163L6.11683 7.18931C6.10053 7.13576 6.09269 7.10272 6.08947 7.0866C6.08796 7.07907 6.08829 7.07932 6.0891 7.08616C6.08985 7.09248 6.0918 7.11088 6.0918 7.13867H4.0918ZM4.21421 7.80479L4.3314 8.14659L6.22329 7.49794L6.1061 7.15614L4.21421 7.80479ZM4.344 8.18124C4.37771 8.2689 4.40867 8.34805 4.43676 8.41827L6.29371 7.67548C6.26972 7.61549 6.24208 7.5449 6.21069 7.46329L4.344 8.18124ZM4.42536 8.38839L7.93122 18.0368L9.81097 17.3538L6.30511 7.70536L4.42536 8.38839ZM9.81505 18.0254L13.4381 7.66406L11.5502 7.00391L7.92714 17.3652L9.81505 18.0254ZM13.4589 7.5971C13.5139 7.39531 13.5527 7.17703 13.5527 6.95312H11.5527C11.5527 6.95057 11.5525 6.9862 11.5294 7.07087L13.4589 7.5971ZM13.5527 6.95312C13.5527 6.6876 13.4926 6.38442 13.3067 6.10546L11.6426 7.21486C11.5607 7.09214 11.5527 6.98428 11.5527 6.95312H13.5527ZM13.3263 6.13606C13.1991 5.92934 13.033 5.75758 12.8387 5.62312L11.7003 7.2675C11.6754 7.25023 11.646 7.2217 11.623 7.18425L13.3263 6.13606ZM12.8508 5.63158C12.5717 5.43228 12.2233 5.34652 11.9721 5.29768L11.5904 7.26091C11.6788 7.27811 11.7315 7.29302 11.7572 7.30175C11.7692 7.30584 11.7688 7.30637 11.7592 7.30182C11.7503 7.2976 11.7239 7.28451 11.6883 7.25905L12.8508 5.63158ZM11.9982 5.30311C11.7687 5.25211 11.5826 5.20862 11.4378 5.17244L10.9528 7.11272C11.1206 7.15467 11.3251 7.20232 11.5643 7.25548L11.9982 5.30311ZM11.4477 5.17496C11.3581 5.15157 11.3158 5.13078 11.3047 5.12452L10.3242 6.86767C10.5214 6.9786 10.7331 7.05546 10.9429 7.1102L11.4477 5.17496ZM11.3047 5.12452C11.3485 5.14917 11.4049 5.19761 11.4452 5.26871C11.4823 5.33409 11.482 5.37663 11.4813 5.36259L9.48355 5.45772C9.51015 6.01616 9.76773 6.55466 10.3242 6.86767L11.3047 5.12452ZM11.4824 5.41016C11.4824 5.37777 11.4854 5.36475 11.4849 5.3668C11.4844 5.36954 11.4799 5.38858 11.465 5.41692L9.69516 4.48543C9.535 4.78973 9.48242 5.1133 9.48242 5.41016H11.4824ZM10.2516 5.89567C10.4525 5.96555 10.6763 5.9922 10.8535 6.00652C11.0515 6.02252 11.2851 6.0293 11.5469 6.0293V4.0293C11.3139 4.0293 11.1389 4.02306 11.0146 4.01301C10.9529 4.00802 10.912 4.00274 10.888 3.99877C10.86 3.99413 10.8725 3.99414 10.9086 4.00668L10.2516 5.89567ZM11.5469 6.0293H14.9355V4.0293H11.5469V6.0293ZM14.9355 6.0293C15.1087 6.0293 15.234 6.04197 15.3199 6.05844C15.4077 6.07525 15.4315 6.09164 15.4188 6.08433C15.3999 6.07347 15.344 6.03438 15.2974 5.95404C15.2507 5.87354 15.2441 5.80477 15.2441 5.78125H17.2441C17.2441 5.17102 16.9423 4.65314 16.4152 4.35024C15.9715 4.09525 15.4347 4.0293 14.9355 4.0293V6.0293ZM15.2441 5.78125C15.2441 5.80999 15.2404 5.80104 15.2509 5.76755C15.2625 5.73053 15.2888 5.6731 15.3405 5.61493L16.8353 6.94366C17.154 6.58515 17.2441 6.14984 17.2441 5.78125H15.2441Z" fill="white" mask="url(#path-1-outside-1_2312_368)"/>
</svg>
