<svg width="78" height="24" viewBox="0 0 78 24" fill="none" xmlns="http://www.w3.org/2000/svg">
<mask id="path-1-outside-1_2314_372" maskUnits="userSpaceOnUse" x="-1" y="3" width="19" height="19" fill="black">
<rect fill="white" x="-1" y="3" width="19" height="19"/>
<path d="M16.0879 6.2793C15.9512 6.21419 15.7624 6.18164 15.5215 6.18164C15.2806 6.18164 15.0983 6.23372 14.9746 6.33789C14.8574 6.43555 14.7467 6.57552 14.6426 6.75781C14.5384 6.9401 14.4375 7.1582 14.3398 7.41211L10.3066 18.3594C9.87044 19.5768 9.14453 20.1855 8.12891 20.1855C7.8099 20.1855 7.61458 20.0944 7.54297 19.9121L2.72852 7.65625C2.67643 7.52604 2.6276 7.38607 2.58203 7.23633C2.53646 7.08008 2.48438 6.93034 2.42578 6.78711C2.28255 6.45508 2.08398 6.25 1.83008 6.17188C1.68034 6.11979 1.54688 6.07747 1.42969 6.04492C1.31901 6.00586 1.22786 5.96354 1.15625 5.91797C1.00651 5.82031 0.931641 5.69661 0.931641 5.54688C0.931641 5.3125 0.983724 5.11393 1.08789 4.95117C1.23763 5.00326 1.49479 5.0293 1.85938 5.0293H5.90234C6.33854 5.0293 6.63477 5.05859 6.79102 5.11719C7.09049 5.23438 7.24023 5.45573 7.24023 5.78125C7.24023 6.0026 7.19141 6.16862 7.09375 6.2793C6.95052 6.21419 6.66732 6.18164 6.24414 6.18164C5.47591 6.18164 5.0918 6.50065 5.0918 7.13867C5.0918 7.2168 5.11458 7.33073 5.16016 7.48047L5.27734 7.82227C5.3099 7.9069 5.33919 7.98177 5.36523 8.04688L8.87109 17.6953L12.4941 7.33398C12.5332 7.19076 12.5527 7.0638 12.5527 6.95312C12.5527 6.83594 12.5267 6.73828 12.4746 6.66016C12.4225 6.57552 12.3542 6.50391 12.2695 6.44531C12.1784 6.38021 12.0156 6.32487 11.7812 6.2793C11.5469 6.22721 11.3516 6.18164 11.1953 6.14258C11.0456 6.10352 10.9186 6.05469 10.8145 5.99609C10.6061 5.87891 10.4954 5.68359 10.4824 5.41016C10.4824 5.22786 10.515 5.07487 10.5801 4.95117C10.7298 5.00326 11.0521 5.0293 11.5469 5.0293H14.9355C15.8079 5.0293 16.2441 5.27995 16.2441 5.78125C16.2441 5.99609 16.1921 6.16211 16.0879 6.2793Z"/>
</mask>
<path d="M16.0879 6.2793L15.658 7.18216L16.3362 7.50514L16.8353 6.94366L16.0879 6.2793ZM14.9746 6.33789L15.6148 7.10612L15.6187 7.1028L14.9746 6.33789ZM14.3398 7.41211L13.4065 7.05313L13.404 7.05975L13.4015 7.0664L14.3398 7.41211ZM10.3066 18.3594L9.36826 18.0137L9.36524 18.0221L10.3066 18.3594ZM7.54297 19.9121L6.61221 20.2777L6.61222 20.2778L7.54297 19.9121ZM2.72852 7.65625L3.65929 7.29061L3.65699 7.28486L2.72852 7.65625ZM2.58203 7.23633L1.62197 7.51635L1.62536 7.52749L2.58203 7.23633ZM2.42578 6.78711L3.35133 6.40848L3.34774 6.39971L3.34399 6.39102L2.42578 6.78711ZM1.83008 6.17188L1.50156 7.11637L1.51867 7.12232L1.53599 7.12765L1.83008 6.17188ZM1.42969 6.04492L1.09687 6.98791L1.1291 6.99929L1.16204 7.00844L1.42969 6.04492ZM1.15625 5.91797L0.609948 6.75563L0.619375 6.76163L1.15625 5.91797ZM1.08789 4.95117L1.41641 4.00668L0.671031 3.74741L0.245619 4.41212L1.08789 4.95117ZM6.79102 5.11719L7.15541 4.18594L7.1488 4.18335L7.14214 4.18086L6.79102 5.11719ZM7.09375 6.2793L6.67995 7.18966L7.35383 7.49597L7.84359 6.94092L7.09375 6.2793ZM5.16016 7.48047L4.20348 7.77163L4.20856 7.78831L4.21421 7.80479L5.16016 7.48047ZM5.27734 7.82227L4.3314 8.14659L4.33738 8.16403L4.344 8.18124L5.27734 7.82227ZM5.36523 8.04688L6.30511 7.70536L6.29965 7.69033L6.29371 7.67548L5.36523 8.04688ZM8.87109 17.6953L7.93122 18.0368L8.88918 20.6732L9.81505 18.0254L8.87109 17.6953ZM12.4941 7.33398L13.4381 7.66406L13.4497 7.63094L13.4589 7.5971L12.4941 7.33398ZM12.4746 6.66016L11.623 7.18425L11.6325 7.19973L11.6426 7.21486L12.4746 6.66016ZM12.2695 6.44531L11.6883 7.25905L11.6943 7.26332L11.7003 7.2675L12.2695 6.44531ZM11.7812 6.2793L11.5643 7.25548L11.5773 7.25837L11.5904 7.26091L11.7812 6.2793ZM11.1953 6.14258L10.9429 7.11025L10.9528 7.11272L11.1953 6.14258ZM10.8145 5.99609L11.3047 5.12452L10.8145 5.99609ZM10.4824 5.41016H9.48242V5.43395L9.48355 5.45772L10.4824 5.41016ZM10.5801 4.95117L10.9086 4.00668L10.0959 3.724L9.69516 4.48543L10.5801 4.95117ZM16.5178 5.37644C16.1905 5.22059 15.8328 5.18164 15.5215 5.18164V7.18164C15.5988 7.18164 15.6477 7.18701 15.6738 7.19151C15.7008 7.19617 15.6905 7.19767 15.658 7.18216L16.5178 5.37644ZM15.5215 5.18164C15.1565 5.18164 14.7046 5.25796 14.3305 5.57298L15.6187 7.1028C15.5557 7.15589 15.5002 7.17613 15.4788 7.18223C15.4603 7.18752 15.4702 7.18164 15.5215 7.18164V5.18164ZM14.3344 5.56967C14.0982 5.7665 13.917 6.01206 13.7743 6.26167L15.5108 7.25395C15.5765 7.13898 15.6166 7.1046 15.6148 7.10611L14.3344 5.56967ZM13.7743 6.26167C13.6389 6.49862 13.5173 6.76495 13.4065 7.05313L15.2732 7.77109C15.3577 7.55146 15.4379 7.38159 15.5108 7.25395L13.7743 6.26167ZM13.4015 7.0664L9.3683 18.0137L11.245 18.7051L15.2782 7.75781L13.4015 7.0664ZM9.36524 18.0221C9.186 18.5224 8.97878 18.8066 8.79251 18.9628C8.62313 19.1048 8.41998 19.1855 8.12891 19.1855V21.1855C8.85345 21.1855 9.52107 20.9619 10.0776 20.4953C10.6173 20.0427 10.9911 19.4138 11.248 18.6967L9.36524 18.0221ZM8.12891 19.1855C8.05126 19.1855 8.08333 19.1724 8.16605 19.211C8.21262 19.2327 8.27449 19.2708 8.33545 19.3332C8.39767 19.3969 8.44408 19.471 8.47372 19.5465L6.61222 20.2778C6.91782 21.0557 7.68921 21.1855 8.12891 21.1855V19.1855ZM8.47373 19.5465L3.65928 7.29062L1.79776 8.02188L6.61221 20.2777L8.47373 19.5465ZM3.65699 7.28486C3.61657 7.1838 3.57695 7.07084 3.53871 6.94517L1.62536 7.52749C1.67826 7.7013 1.7363 7.86829 1.80004 8.02764L3.65699 7.28486ZM3.54203 6.95633C3.4872 6.76834 3.42378 6.58557 3.35133 6.40848L1.50023 7.16574C1.54497 7.27511 1.58572 7.39182 1.62203 7.51633L3.54203 6.95633ZM3.34399 6.39102C3.12885 5.89227 2.74937 5.40847 2.12416 5.2161L1.53599 7.12765C1.51589 7.12147 1.49646 7.11249 1.47958 7.10193C1.46302 7.09156 1.45373 7.0827 1.45102 7.07989C1.44702 7.07576 1.47164 7.09991 1.50757 7.1832L3.34399 6.39102ZM2.1586 5.22738C1.99442 5.17027 1.84006 5.12105 1.69733 5.0814L1.16204 7.00844C1.25369 7.0339 1.36626 7.06931 1.50156 7.11637L2.1586 5.22738ZM1.76251 5.10193C1.73232 5.09128 1.71186 5.08265 1.69943 5.07688C1.68677 5.071 1.68577 5.06963 1.69313 5.07431L0.619375 6.76163C0.774115 6.8601 0.939695 6.93244 1.09687 6.98791L1.76251 5.10193ZM1.70252 5.08036C1.72436 5.0946 1.7868 5.14082 1.84329 5.23415C1.90385 5.33421 1.93164 5.44601 1.93164 5.54688H-0.0683594C-0.0683594 6.10385 0.240599 6.51468 0.609982 6.75558L1.70252 5.08036ZM1.93164 5.54688C1.93164 5.50346 1.93648 5.48161 1.93798 5.47588C1.93917 5.47134 1.93781 5.47827 1.93016 5.49023L0.245619 4.41212C0.0184021 4.76714 -0.0683594 5.1624 -0.0683594 5.54688H1.93164ZM0.75937 5.89567C1.08286 6.00819 1.4904 6.0293 1.85938 6.0293V4.0293C1.69827 4.0293 1.57847 4.02343 1.49382 4.01485C1.40079 4.00543 1.38618 3.99616 1.41641 4.00668L0.75937 5.89567ZM1.85938 6.0293H5.90234V4.0293H1.85938V6.0293ZM5.90234 6.0293C6.10118 6.0293 6.24904 6.03611 6.35324 6.04641C6.47111 6.05807 6.48292 6.06965 6.43989 6.05352L7.14214 4.18086C6.79403 4.05032 6.32469 4.0293 5.90234 4.0293V6.0293ZM6.42662 6.04843C6.42676 6.04849 6.35968 6.02015 6.29965 5.9314C6.24023 5.84357 6.24023 5.77415 6.24023 5.78125H8.24023C8.24023 5.46282 8.16537 5.11997 7.95621 4.81078C7.74644 4.50068 7.45475 4.30308 7.15541 4.18594L6.42662 6.04843ZM6.24023 5.78125C6.24023 5.82163 6.23542 5.81963 6.24425 5.78961C6.25404 5.75633 6.28071 5.68931 6.34391 5.61768L7.84359 6.94092C8.16643 6.57503 8.24023 6.1281 8.24023 5.78125H6.24023ZM7.50755 5.36893C7.29328 5.27153 7.06366 5.23277 6.88812 5.2126C6.69523 5.19043 6.47751 5.18164 6.24414 5.18164V7.18164C6.43394 7.18164 6.56942 7.18913 6.65974 7.19951C6.70419 7.20462 6.72839 7.2094 6.73685 7.21134C6.74795 7.21388 6.72383 7.20961 6.67995 7.18966L7.50755 5.36893ZM6.24414 5.18164C5.74642 5.18164 5.18704 5.28115 4.74098 5.65161C4.25935 6.05161 4.0918 6.61161 4.0918 7.13867H6.0918C6.0918 7.07747 6.10119 7.06919 6.09186 7.09245C6.087 7.10456 6.07835 7.12184 6.06444 7.14109C6.05043 7.16047 6.03452 7.17712 6.01878 7.19019C5.98662 7.2169 5.97267 7.21465 6.00679 7.20521C6.04334 7.19509 6.11802 7.18164 6.24414 7.18164V5.18164ZM4.0918 7.13867C4.0918 7.37122 4.15193 7.60223 4.20348 7.77163L6.11683 7.18931C6.10053 7.13576 6.09269 7.10272 6.08947 7.0866C6.08796 7.07907 6.08829 7.07932 6.0891 7.08616C6.08985 7.09248 6.0918 7.11088 6.0918 7.13867H4.0918ZM4.21421 7.80479L4.3314 8.14659L6.22329 7.49794L6.1061 7.15614L4.21421 7.80479ZM4.344 8.18124C4.37771 8.2689 4.40867 8.34805 4.43676 8.41827L6.29371 7.67548C6.26972 7.61549 6.24208 7.5449 6.21069 7.46329L4.344 8.18124ZM4.42536 8.38839L7.93122 18.0368L9.81097 17.3538L6.30511 7.70536L4.42536 8.38839ZM9.81505 18.0254L13.4381 7.66406L11.5502 7.00391L7.92714 17.3652L9.81505 18.0254ZM13.4589 7.5971C13.5139 7.39531 13.5527 7.17703 13.5527 6.95312H11.5527C11.5527 6.95057 11.5525 6.9862 11.5294 7.07087L13.4589 7.5971ZM13.5527 6.95312C13.5527 6.6876 13.4926 6.38442 13.3067 6.10546L11.6426 7.21486C11.5607 7.09214 11.5527 6.98428 11.5527 6.95312H13.5527ZM13.3263 6.13606C13.1991 5.92934 13.033 5.75758 12.8387 5.62312L11.7003 7.2675C11.6754 7.25023 11.646 7.2217 11.623 7.18425L13.3263 6.13606ZM12.8508 5.63158C12.5717 5.43228 12.2233 5.34652 11.9721 5.29768L11.5904 7.26091C11.6788 7.27811 11.7315 7.29302 11.7572 7.30175C11.7692 7.30584 11.7688 7.30637 11.7592 7.30182C11.7503 7.2976 11.7239 7.28451 11.6883 7.25905L12.8508 5.63158ZM11.9982 5.30311C11.7687 5.25211 11.5826 5.20862 11.4378 5.17244L10.9528 7.11272C11.1206 7.15467 11.3251 7.20232 11.5643 7.25548L11.9982 5.30311ZM11.4477 5.17496C11.3581 5.15157 11.3158 5.13078 11.3047 5.12452L10.3242 6.86767C10.5214 6.9786 10.7331 7.05546 10.9429 7.1102L11.4477 5.17496ZM11.3047 5.12452C11.3485 5.14917 11.4049 5.19761 11.4452 5.26871C11.4823 5.33409 11.482 5.37663 11.4813 5.36259L9.48355 5.45772C9.51015 6.01616 9.76773 6.55466 10.3242 6.86767L11.3047 5.12452ZM11.4824 5.41016C11.4824 5.37777 11.4854 5.36475 11.4849 5.3668C11.4844 5.36954 11.4799 5.38858 11.465 5.41692L9.69516 4.48543C9.535 4.78973 9.48242 5.1133 9.48242 5.41016H11.4824ZM10.2516 5.89567C10.4525 5.96555 10.6763 5.9922 10.8535 6.00652C11.0515 6.02252 11.2851 6.0293 11.5469 6.0293V4.0293C11.3139 4.0293 11.1389 4.02306 11.0146 4.01301C10.9529 4.00802 10.912 4.00274 10.888 3.99877C10.86 3.99413 10.8725 3.99414 10.9086 4.00668L10.2516 5.89567ZM11.5469 6.0293H14.9355V4.0293H11.5469V6.0293ZM14.9355 6.0293C15.1087 6.0293 15.234 6.04197 15.3199 6.05844C15.4077 6.07525 15.4315 6.09164 15.4188 6.08433C15.3999 6.07347 15.344 6.03438 15.2974 5.95404C15.2507 5.87354 15.2441 5.80477 15.2441 5.78125H17.2441C17.2441 5.17102 16.9423 4.65314 16.4152 4.35024C15.9715 4.09525 15.4347 4.0293 14.9355 4.0293V6.0293ZM15.2441 5.78125C15.2441 5.80999 15.2404 5.80104 15.2509 5.76755C15.2625 5.73053 15.2888 5.6731 15.3405 5.61493L16.8353 6.94366C17.154 6.58515 17.2441 6.14984 17.2441 5.78125H15.2441Z" fill="white" mask="url(#path-1-outside-1_2314_372)"/>
<path d="M18.7754 19.2559C18.2051 19.8262 17.5156 20.1113 16.707 20.1113C16.082 20.1113 15.582 19.9316 15.207 19.5723C14.8281 19.209 14.6387 18.7383 14.6387 18.1602C14.6387 17.4414 14.959 16.9023 15.5996 16.543C16.1777 16.2148 16.9922 16.0508 18.043 16.0508H18.7754C18.7793 15.9023 18.7812 15.7578 18.7812 15.6172V15.1777C18.7812 14.6543 18.7051 14.2852 18.5527 14.0703C18.3809 13.8281 18.0879 13.707 17.6738 13.707C16.7246 13.707 16.2363 14.0469 16.209 14.7266C16.2051 14.832 16.207 14.9199 16.2148 14.9902C16.1367 15.0527 16.0039 15.084 15.8164 15.084C15.6328 15.084 15.498 15.0625 15.4121 15.0195C15.3301 14.9766 15.2578 14.918 15.1953 14.8438C15.0625 14.6914 14.9961 14.498 14.9961 14.2637C14.9961 14.0254 15.0645 13.8184 15.2012 13.6426C15.3418 13.4629 15.5312 13.3164 15.7695 13.2031C16.2344 12.9727 16.7832 12.8574 17.416 12.8574C18.0488 12.8574 18.5234 12.9199 18.8398 13.0449C19.1602 13.166 19.4141 13.3281 19.6016 13.5312C19.9336 13.8906 20.0996 14.373 20.0996 14.9785L20.041 17.791C20.041 18.3027 20.0645 18.627 20.1113 18.7637C20.1621 18.9004 20.2207 18.9922 20.2871 19.0391C20.3574 19.0859 20.4414 19.1094 20.5391 19.1094C20.6406 19.1094 20.7227 19.0938 20.7852 19.0625L20.9492 18.9863C21.0039 18.9668 21.0508 18.9902 21.0898 19.0566C21.1328 19.1191 21.1543 19.1758 21.1543 19.2266C21.1543 19.2734 21.1328 19.3359 21.0898 19.4141C21.0508 19.4922 20.9746 19.5762 20.8613 19.666C20.752 19.752 20.627 19.8281 20.4863 19.8945C19.709 20.2617 19.1797 20.1758 18.8984 19.6367C18.8398 19.5312 18.7988 19.4043 18.7754 19.2559ZM18.7578 18.4883C18.7578 17.9258 18.7617 17.3672 18.7695 16.8125C17.957 16.8438 17.4043 16.8965 17.1113 16.9707C16.8223 17.041 16.6133 17.1094 16.4844 17.1758C16.3555 17.2422 16.2539 17.3203 16.1797 17.4102C16.0586 17.5586 15.998 17.7832 15.998 18.084C15.998 18.3809 16.1035 18.6191 16.3145 18.7988C16.5254 18.9746 16.8281 19.0625 17.2227 19.0625C17.7812 19.0625 18.293 18.8711 18.7578 18.4883ZM26.0879 19.2559C25.5176 19.8262 24.8281 20.1113 24.0195 20.1113C23.3945 20.1113 22.8945 19.9316 22.5195 19.5723C22.1406 19.209 21.9512 18.7383 21.9512 18.1602C21.9512 17.4414 22.2715 16.9023 22.9121 16.543C23.4902 16.2148 24.3047 16.0508 25.3555 16.0508H26.0879C26.0918 15.9023 26.0938 15.7578 26.0938 15.6172V15.1777C26.0938 14.6543 26.0176 14.2852 25.8652 14.0703C25.6934 13.8281 25.4004 13.707 24.9863 13.707C24.0371 13.707 23.5488 14.0469 23.5215 14.7266C23.5176 14.832 23.5195 14.9199 23.5273 14.9902C23.4492 15.0527 23.3164 15.084 23.1289 15.084C22.9453 15.084 22.8105 15.0625 22.7246 15.0195C22.6426 14.9766 22.5703 14.918 22.5078 14.8438C22.375 14.6914 22.3086 14.498 22.3086 14.2637C22.3086 14.0254 22.377 13.8184 22.5137 13.6426C22.6543 13.4629 22.8438 13.3164 23.082 13.2031C23.5469 12.9727 24.0957 12.8574 24.7285 12.8574C25.3613 12.8574 25.8359 12.9199 26.1523 13.0449C26.4727 13.166 26.7266 13.3281 26.9141 13.5312C27.2461 13.8906 27.4121 14.373 27.4121 14.9785L27.3535 17.791C27.3535 18.3027 27.377 18.627 27.4238 18.7637C27.4746 18.9004 27.5332 18.9922 27.5996 19.0391C27.6699 19.0859 27.7539 19.1094 27.8516 19.1094C27.9531 19.1094 28.0352 19.0938 28.0977 19.0625L28.2617 18.9863C28.3164 18.9668 28.3633 18.9902 28.4023 19.0566C28.4453 19.1191 28.4668 19.1758 28.4668 19.2266C28.4668 19.2734 28.4453 19.3359 28.4023 19.4141C28.3633 19.4922 28.2871 19.5762 28.1738 19.666C28.0645 19.752 27.9395 19.8281 27.7988 19.8945C27.0215 20.2617 26.4922 20.1758 26.2109 19.6367C26.1523 19.5312 26.1113 19.4043 26.0879 19.2559ZM26.0703 18.4883C26.0703 17.9258 26.0742 17.3672 26.082 16.8125C25.2695 16.8438 24.7168 16.8965 24.4238 16.9707C24.1348 17.041 23.9258 17.1094 23.7969 17.1758C23.668 17.2422 23.5664 17.3203 23.4922 17.4102C23.3711 17.5586 23.3105 17.7832 23.3105 18.084C23.3105 18.3809 23.416 18.6191 23.627 18.7988C23.8379 18.9746 24.1406 19.0625 24.5352 19.0625C25.0938 19.0625 25.6055 18.8711 26.0703 18.4883ZM28.9766 13.8008L28.8535 13.8242C28.7676 13.8242 28.707 13.7656 28.6719 13.6484C28.6602 13.6172 28.6543 13.5723 28.6543 13.5137C28.6543 13.4551 28.6875 13.3828 28.7539 13.2969C28.8203 13.2109 28.9062 13.1367 29.0117 13.0742C29.2461 12.9297 29.4941 12.8574 29.7559 12.8574C29.9629 12.8574 30.1113 12.8867 30.2012 12.9453C30.377 13.0547 30.5137 13.2773 30.6113 13.6133L32.3984 18.7988C32.7656 17.9824 33.0176 17.4043 33.1543 17.0645L33.5117 16.1562C33.8438 15.2656 34.0098 14.6855 34.0098 14.416C34.0098 14.1426 33.9629 13.9434 33.8691 13.8184C33.7754 13.6934 33.6133 13.6191 33.3828 13.5957C33.3398 13.5488 33.3184 13.4863 33.3184 13.4082C33.3184 13.3262 33.3535 13.252 33.4238 13.1855C33.498 13.1152 33.5938 13.0547 33.7109 13.0039C33.9492 12.9062 34.1934 12.8574 34.4434 12.8574C34.6973 12.8574 34.877 12.8711 34.9824 12.8984C35.0879 12.9219 35.1719 12.9629 35.2344 13.0215C35.3555 13.1309 35.416 13.334 35.416 13.6309C35.416 13.8965 35.207 14.5977 34.7891 15.7344C34.3984 16.75 34.1055 17.4863 33.9102 17.9434C33.1914 19.5449 32.6504 20.666 32.2871 21.3066C31.9238 21.9473 31.5801 22.3906 31.2559 22.6367C30.9316 22.8867 30.5898 23.0117 30.2305 23.0117C29.8711 23.0117 29.5996 22.9336 29.416 22.7773C29.2324 22.625 29.1406 22.4141 29.1406 22.1445C29.1406 21.9414 29.1914 21.7891 29.293 21.6875C29.4844 21.4961 29.6875 21.4219 29.9023 21.4648C29.9375 21.7578 30.1133 21.9043 30.4297 21.9043C30.7148 21.9043 30.9707 21.7188 31.1973 21.3477C31.3027 21.1719 31.4062 20.9668 31.5078 20.7324L31.8477 19.9766L31.9648 19.7363C31.7383 19.7051 31.5469 19.5938 31.3906 19.4023C31.3281 19.3281 31.2773 19.2344 31.2383 19.1211L29.5977 14.8145L29.457 14.4688C29.2773 14.0234 29.1172 13.8008 28.9766 13.8008ZM36.8105 14.7852C36.8105 14.5625 36.793 14.3848 36.7578 14.252C36.7266 14.1152 36.6602 14.0469 36.5586 14.0469C36.4844 14.0469 36.4258 14.0547 36.3828 14.0703L36.2422 14.1289C36.2148 14.1367 36.1816 14.1211 36.1426 14.082C36.0684 14 36.0312 13.9258 36.0312 13.8594C36.0312 13.7891 36.0527 13.7168 36.0957 13.6426C36.1426 13.5645 36.2109 13.4766 36.3008 13.3789C36.3945 13.2812 36.5 13.1953 36.6172 13.1211C36.8828 12.9453 37.123 12.8574 37.3379 12.8574C37.5527 12.8574 37.7051 12.8945 37.7949 12.9688C37.8848 13.043 37.9531 13.1406 38 13.2617C38.0781 13.457 38.1172 13.752 38.1172 14.1465V17.8145C38.1172 18.4746 38.3164 18.8438 38.7148 18.9219C38.8359 18.9453 38.9785 18.957 39.1426 18.957C39.3105 18.957 39.4883 18.9355 39.6758 18.8926C39.8672 18.8496 40.0488 18.793 40.2207 18.7227C40.5527 18.5859 40.8457 18.4121 41.0996 18.2012V14.7852C41.0996 14.4141 41.0332 14.1855 40.9004 14.0996C40.8457 14.0645 40.7734 14.0469 40.6836 14.0469C40.5938 14.0469 40.5215 14.0605 40.4668 14.0879C40.416 14.1152 40.373 14.1348 40.3379 14.1465C40.3066 14.1582 40.2793 14.1582 40.2559 14.1465C40.2324 14.1309 40.207 14.1094 40.1797 14.082C40.1211 14.0156 40.0918 13.9492 40.0918 13.8828C40.0918 13.8164 40.1152 13.7461 40.1621 13.6719C40.2129 13.5938 40.293 13.5059 40.4023 13.4082C40.5117 13.3066 40.6367 13.2148 40.7773 13.1328C41.0938 12.9492 41.4102 12.8574 41.7266 12.8574C42.1094 12.8574 42.3281 13.1289 42.3828 13.6719C42.3984 13.8242 42.4062 13.9824 42.4062 14.1465V17.6152C42.4062 18.2168 42.4297 18.5918 42.4766 18.7402C42.5234 18.8887 42.5801 18.9863 42.6465 19.0332C42.7129 19.0762 42.7949 19.0977 42.8926 19.0977C42.9902 19.0977 43.0703 19.082 43.1328 19.0508L43.3086 18.9746C43.3594 18.9629 43.4043 18.9863 43.4434 19.0449C43.5254 19.166 43.5371 19.2754 43.4785 19.373C43.4199 19.4707 43.3281 19.5645 43.2031 19.6543C43.082 19.7441 42.9453 19.8223 42.793 19.8887C42.1172 20.1855 41.6367 20.1797 41.3516 19.8711C41.2031 19.7109 41.1191 19.457 41.0996 19.1094C40.5254 19.5508 39.9375 19.8555 39.3359 20.0234C39.1172 20.082 38.8867 20.1113 38.6445 20.1113C38.4062 20.1113 38.1719 20.0781 37.9414 20.0117C37.7148 19.9453 37.5176 19.8379 37.3496 19.6895C36.9902 19.373 36.8105 18.8848 36.8105 18.2246V14.7852ZM55.8828 18.1777C55.8828 19.0566 55.7656 19.6641 55.5312 20H49.1387C48.8301 20 48.6172 19.9219 48.5 19.7656C48.4609 19.7109 48.4414 19.6504 48.4414 19.584C48.4414 19.4355 48.4727 19.3223 48.5352 19.2441C48.668 19.2832 48.8418 19.3027 49.0566 19.3027C49.5371 19.3027 49.7773 19.0078 49.7773 18.418V12.4004C49.7773 12.1309 49.6641 11.9492 49.4375 11.8555C49.3711 11.8242 49.2891 11.7949 49.1914 11.7676L48.8984 11.6914C48.7109 11.6445 48.5938 11.5879 48.5469 11.5215C48.5039 11.4512 48.4824 11.3809 48.4824 11.3105C48.4824 11.1621 48.5137 11.0488 48.5762 10.9707C48.666 11.002 48.8594 11.0176 49.1562 11.0176H51.7109C51.9141 11.0176 52.0762 11.0508 52.1973 11.1172C52.3184 11.1797 52.3789 11.2969 52.3789 11.4688C52.3789 11.6016 52.3496 11.7012 52.291 11.7676C52.1426 11.7285 52 11.709 51.8633 11.709C51.7305 11.709 51.625 11.7246 51.5469 11.7559C51.4727 11.7832 51.4062 11.832 51.3477 11.9023C51.2305 12.0508 51.168 12.2949 51.1602 12.6348V18.5586C51.168 18.832 51.248 19.0156 51.4004 19.1094C51.5293 19.1914 51.7656 19.2324 52.1094 19.2324L52.5488 19.2266L53.0527 19.2207C53.9043 19.2207 54.4609 19.0312 54.7227 18.6523C54.8516 18.4648 54.9375 18.2305 54.9805 17.9492C55.0273 17.6641 55.0684 17.334 55.1035 16.959C55.166 16.9199 55.25 16.9004 55.3555 16.9004C55.5547 16.9004 55.6895 16.9238 55.7598 16.9707C55.8418 17.291 55.8828 17.6934 55.8828 18.1777ZM61.1035 19.2559C60.5332 19.8262 59.8438 20.1113 59.0352 20.1113C58.4102 20.1113 57.9102 19.9316 57.5352 19.5723C57.1562 19.209 56.9668 18.7383 56.9668 18.1602C56.9668 17.4414 57.2871 16.9023 57.9277 16.543C58.5059 16.2148 59.3203 16.0508 60.3711 16.0508H61.1035C61.1074 15.9023 61.1094 15.7578 61.1094 15.6172V15.1777C61.1094 14.6543 61.0332 14.2852 60.8809 14.0703C60.709 13.8281 60.416 13.707 60.002 13.707C59.0527 13.707 58.5645 14.0469 58.5371 14.7266C58.5332 14.832 58.5352 14.9199 58.543 14.9902C58.4648 15.0527 58.332 15.084 58.1445 15.084C57.9609 15.084 57.8262 15.0625 57.7402 15.0195C57.6582 14.9766 57.5859 14.918 57.5234 14.8438C57.3906 14.6914 57.3242 14.498 57.3242 14.2637C57.3242 14.0254 57.3926 13.8184 57.5293 13.6426C57.6699 13.4629 57.8594 13.3164 58.0977 13.2031C58.5625 12.9727 59.1113 12.8574 59.7441 12.8574C60.377 12.8574 60.8516 12.9199 61.168 13.0449C61.4883 13.166 61.7422 13.3281 61.9297 13.5312C62.2617 13.8906 62.4277 14.373 62.4277 14.9785L62.3691 17.791C62.3691 18.3027 62.3926 18.627 62.4395 18.7637C62.4902 18.9004 62.5488 18.9922 62.6152 19.0391C62.6855 19.0859 62.7695 19.1094 62.8672 19.1094C62.9688 19.1094 63.0508 19.0938 63.1133 19.0625L63.2773 18.9863C63.332 18.9668 63.3789 18.9902 63.418 19.0566C63.4609 19.1191 63.4824 19.1758 63.4824 19.2266C63.4824 19.2734 63.4609 19.3359 63.418 19.4141C63.3789 19.4922 63.3027 19.5762 63.1895 19.666C63.0801 19.752 62.9551 19.8281 62.8145 19.8945C62.0371 20.2617 61.5078 20.1758 61.2266 19.6367C61.168 19.5312 61.127 19.4043 61.1035 19.2559ZM61.0859 18.4883C61.0859 17.9258 61.0898 17.3672 61.0977 16.8125C60.2852 16.8438 59.7324 16.8965 59.4395 16.9707C59.1504 17.041 58.9414 17.1094 58.8125 17.1758C58.6836 17.2422 58.582 17.3203 58.5078 17.4102C58.3867 17.5586 58.3262 17.7832 58.3262 18.084C58.3262 18.3809 58.4316 18.6191 58.6426 18.7988C58.8535 18.9746 59.1562 19.0625 59.5508 19.0625C60.1094 19.0625 60.6211 18.8711 61.0859 18.4883ZM66.1953 13.6777C66.7812 13.1309 67.4355 12.8574 68.1582 12.8574C68.9551 12.8574 69.6035 13.1328 70.1035 13.6836C70.6504 14.2773 70.9238 15.1055 70.9238 16.168C70.9238 17.3633 70.5488 18.332 69.7988 19.0742C69.0918 19.7656 68.2559 20.1113 67.291 20.1113C66.6621 20.1113 66.0352 19.9688 65.4102 19.6836C65.207 19.5938 65.0332 19.4902 64.8887 19.373V11.3574C64.8887 11.0879 64.8613 10.9141 64.8066 10.8359C64.7246 10.7109 64.5801 10.6484 64.373 10.6484C64.2793 10.6484 64.1914 10.6582 64.1094 10.6777C64.0273 10.6934 63.9707 10.6934 63.9395 10.6777C63.9082 10.6582 63.8809 10.6328 63.8574 10.6016C63.7754 10.4766 63.873 10.3125 64.1504 10.1094C64.5801 9.79297 65.0039 9.63477 65.4219 9.63477C65.8672 9.63477 66.1172 9.875 66.1719 10.3555C66.1875 10.5 66.1953 10.6523 66.1953 10.8125V13.6777ZM66.1953 14.6094V18.7168C66.5625 19.0215 67.002 19.1738 67.5137 19.1738C68.1191 19.1738 68.6113 18.9492 68.9902 18.5C69.3926 18.0234 69.5938 17.3691 69.5938 16.5371C69.5938 15.6621 69.416 15.0039 69.0605 14.5625C68.7441 14.1602 68.3008 13.959 67.7305 13.959C67.1641 13.959 66.6523 14.1758 66.1953 14.6094ZM76.0742 14.9375C76.0742 14.3359 75.8242 13.9375 75.3242 13.7422C75.1641 13.6797 74.9902 13.6484 74.8027 13.6484C74.6191 13.6484 74.4473 13.6641 74.2871 13.6953C74.1309 13.7266 73.9922 13.7754 73.8711 13.8418C73.5977 13.9902 73.4609 14.2031 73.4609 14.4805C73.4609 14.7461 73.5742 14.9766 73.8008 15.1719C74.0508 15.3789 74.5156 15.6348 75.1953 15.9395C75.875 16.2402 76.3984 16.5703 76.7656 16.9297C77.1367 17.2852 77.3223 17.6953 77.3223 18.1602C77.3223 18.6836 77.1074 19.125 76.6777 19.4844C76.1738 19.9023 75.4766 20.1113 74.5859 20.1113C73.4961 20.1113 72.7422 19.8789 72.3242 19.4141C72.1797 19.25 72.1074 19.041 72.1074 18.7871C72.1074 18.1738 72.2578 17.8164 72.5586 17.7148C72.6328 17.6914 72.7031 17.6797 72.7695 17.6797C72.9531 17.6797 73.0527 17.7363 73.0684 17.8496C73.1543 18.8262 73.7012 19.3145 74.709 19.3145C75.3145 19.3145 75.7188 19.1445 75.9219 18.8047C75.9883 18.6953 76.0215 18.5625 76.0215 18.4062C76.0215 18.25 75.9707 18.1074 75.8691 17.9785C75.7715 17.8496 75.6348 17.7305 75.459 17.6211C75.2832 17.5078 75.0742 17.3984 74.832 17.293L74.0527 16.9414C72.8574 16.3945 72.2598 15.668 72.2598 14.7617C72.2598 14.1758 72.5195 13.707 73.0391 13.3555C73.5312 13.0234 74.166 12.8574 74.9434 12.8574C75.998 12.8574 76.6543 13.0859 76.9121 13.543C76.9785 13.6602 77.0117 13.7891 77.0117 13.9297C77.0117 14.0703 77.0039 14.1973 76.9883 14.3105C76.9727 14.4199 76.9531 14.5195 76.9297 14.6094C76.8906 14.7812 76.8457 14.9023 76.7949 14.9727C76.6934 15.0469 76.5469 15.084 76.3555 15.084C76.168 15.084 76.0742 15.0352 76.0742 14.9375Z" fill="white"/>
</svg>
